<mxfile host="65bd71144e">
    <diagram id="5uhXA2S3OQWrxWfemqLr" name="第 1 页">
        <mxGraphModel dx="182" dy="120" grid="0" gridSize="10" guides="1" tooltips="1" connect="1" arrows="1" fold="1" page="1" pageScale="1" pageWidth="1654" pageHeight="2336" background="#ffffff" math="0" shadow="0">
            <root>
                <mxCell id="0"/>
                <mxCell id="1" parent="0"/>
                <mxCell id="335" value="" style="endArrow=none;html=1;rounded=0;strokeColor=#000000;endFill=1;startArrow=none;" parent="1" source="61" target="63" edge="1">
                    <mxGeometry width="50" height="50" relative="1" as="geometry">
                        <mxPoint x="420" y="340" as="sourcePoint"/>
                        <mxPoint x="420" y="569" as="targetPoint"/>
                        <Array as="points"/>
                    </mxGeometry>
                </mxCell>
                <mxCell id="231" value="" style="shape=waypoint;sketch=0;size=6;pointerEvents=1;points=[];fillColor=none;resizable=0;rotatable=0;perimeter=centerPerimeter;snapToPoint=1;fontSize=10;fontColor=#000000;strokeColor=#000000;strokeWidth=0;" parent="1" vertex="1">
                    <mxGeometry x="399.5" y="467" width="40" height="40" as="geometry"/>
                </mxCell>
                <mxCell id="308" value="" style="endArrow=none;html=1;rounded=0;strokeColor=#000000;endFill=1;startArrow=none;" parent="1" source="63" target="305" edge="1">
                    <mxGeometry width="50" height="50" relative="1" as="geometry">
                        <mxPoint x="420" y="340" as="sourcePoint"/>
                        <mxPoint x="520" y="570" as="targetPoint"/>
                        <Array as="points"/>
                    </mxGeometry>
                </mxCell>
                <mxCell id="284" value="" style="shape=waypoint;sketch=0;size=6;pointerEvents=1;points=[];fillColor=none;resizable=0;rotatable=0;perimeter=centerPerimeter;snapToPoint=1;fontSize=10;fontColor=#FFFFFF;strokeColor=#000000;strokeWidth=0;" parent="1" vertex="1">
                    <mxGeometry x="680" y="370" width="40" height="40" as="geometry"/>
                </mxCell>
                <mxCell id="144" value="&lt;font style=&quot;font-size: 10px&quot;&gt;1&lt;/font&gt;" style="text;html=1;align=center;verticalAlign=middle;resizable=0;points=[];autosize=1;strokeColor=none;fillColor=none;fontSize=8;fontColor=#000000;" parent="1" vertex="1">
                    <mxGeometry x="176" y="343" width="16" height="15" as="geometry"/>
                </mxCell>
                <mxCell id="46" value="" style="endArrow=classicThin;html=1;rounded=0;strokeColor=#000000;endFill=1;startArrow=none;" parent="1" source="305" edge="1">
                    <mxGeometry width="50" height="50" relative="1" as="geometry">
                        <mxPoint x="420" y="340" as="sourcePoint"/>
                        <mxPoint x="520" y="570" as="targetPoint"/>
                        <Array as="points">
                            <mxPoint x="420" y="570"/>
                        </Array>
                    </mxGeometry>
                </mxCell>
                <mxCell id="52" value="" style="shape=waypoint;sketch=0;size=6;pointerEvents=1;points=[];fillColor=none;resizable=0;rotatable=0;perimeter=centerPerimeter;snapToPoint=1;strokeColor=#000000;strokeWidth=0;" parent="1" vertex="1">
                    <mxGeometry x="400" y="180" width="40" height="40" as="geometry"/>
                </mxCell>
                <mxCell id="8" value="&lt;font color=&quot;#ffffff&quot;&gt;&lt;span style=&quot;font-size: 10px&quot;&gt;Control&lt;br&gt;Unit&lt;br&gt;&lt;/span&gt;&lt;/font&gt;" style="rounded=1;whiteSpace=wrap;html=1;strokeColor=#000000;fillColor=default;" parent="1" vertex="1">
                    <mxGeometry x="440" y="120" width="50" height="105" as="geometry"/>
                </mxCell>
                <mxCell id="196" value="&lt;font color=&quot;#ffffff&quot;&gt;op&lt;/font&gt;" style="text;html=1;align=center;verticalAlign=middle;resizable=0;points=[];autosize=1;strokeColor=none;fillColor=none;fontSize=10;fontColor=#000000;" parent="1" vertex="1">
                    <mxGeometry x="439.5" y="180" width="21" height="16" as="geometry"/>
                </mxCell>
                <mxCell id="188" value="MemToReg" style="text;html=1;align=center;verticalAlign=middle;resizable=0;points=[];autosize=1;strokeColor=none;fillColor=none;fontSize=10;fontColor=#4D4D4D;" parent="1" vertex="1">
                    <mxGeometry x="540" y="128" width="61" height="16" as="geometry"/>
                </mxCell>
                <mxCell id="49" value="" style="shape=waypoint;sketch=0;size=6;pointerEvents=1;points=[];fillColor=none;resizable=0;rotatable=0;perimeter=centerPerimeter;snapToPoint=1;strokeColor=#000000;strokeWidth=0;" parent="1" vertex="1">
                    <mxGeometry x="400" y="320" width="40" height="40" as="geometry"/>
                </mxCell>
                <mxCell id="50" value="" style="shape=waypoint;sketch=0;size=6;pointerEvents=1;points=[];fillColor=none;resizable=0;rotatable=0;perimeter=centerPerimeter;snapToPoint=1;strokeColor=#000000;strokeWidth=0;" parent="1" vertex="1">
                    <mxGeometry x="400" y="340" width="40" height="40" as="geometry"/>
                </mxCell>
                <mxCell id="40" value="" style="shape=waypoint;sketch=0;size=6;pointerEvents=1;points=[];fillColor=none;resizable=0;rotatable=0;perimeter=centerPerimeter;snapToPoint=1;strokeColor=#000000;strokeWidth=0;" parent="1" vertex="1">
                    <mxGeometry x="230" y="320" width="40" height="40" as="geometry"/>
                </mxCell>
                <mxCell id="3" value="" style="endArrow=none;html=1;strokeColor=#000000;rounded=0;" parent="1" edge="1">
                    <mxGeometry width="50" height="50" relative="1" as="geometry">
                        <mxPoint x="180" y="380" as="sourcePoint"/>
                        <mxPoint x="180" y="320" as="targetPoint"/>
                        <Array as="points">
                            <mxPoint x="200" y="370"/>
                            <mxPoint x="200" y="330"/>
                        </Array>
                    </mxGeometry>
                </mxCell>
                <mxCell id="4" value="" style="endArrow=none;html=1;rounded=0;strokeColor=#000000;" parent="1" edge="1">
                    <mxGeometry width="50" height="50" relative="1" as="geometry">
                        <mxPoint x="180" y="380" as="sourcePoint"/>
                        <mxPoint x="180" y="320" as="targetPoint"/>
                        <Array as="points">
                            <mxPoint x="180" y="340"/>
                        </Array>
                    </mxGeometry>
                </mxCell>
                <mxCell id="33" value="" style="edgeStyle=none;rounded=0;html=1;endArrow=classicThin;endFill=1;strokeColor=#000000;entryX=0;entryY=0.182;entryDx=0;entryDy=0;entryPerimeter=0;startArrow=none;" parent="1" source="40" target="6" edge="1">
                    <mxGeometry relative="1" as="geometry">
                        <Array as="points">
                            <mxPoint x="260" y="340"/>
                            <mxPoint x="270" y="340"/>
                        </Array>
                    </mxGeometry>
                </mxCell>
                <mxCell id="5" value="&lt;font style=&quot;font-size: 10px&quot; color=&quot;#000000&quot;&gt;PC&lt;/font&gt;" style="rounded=0;whiteSpace=wrap;html=1;fillColor=none;strokeColor=#000000;" parent="1" vertex="1">
                    <mxGeometry x="220" y="320" width="20" height="40" as="geometry"/>
                </mxCell>
                <mxCell id="6" value="&lt;font style=&quot;font-size: 10px&quot; color=&quot;#000000&quot;&gt;Inst&lt;br&gt;Mem&lt;/font&gt;" style="rounded=0;whiteSpace=wrap;html=1;strokeColor=#000000;fillColor=none;" parent="1" vertex="1">
                    <mxGeometry x="270" y="320" width="90" height="110" as="geometry"/>
                </mxCell>
                <mxCell id="7" value="" style="rounded=0;whiteSpace=wrap;html=1;strokeColor=#000000;fillColor=#B0B0B0;" parent="1" vertex="1">
                    <mxGeometry x="380" y="120" width="20" height="490" as="geometry"/>
                </mxCell>
                <mxCell id="9" value="&lt;font style=&quot;font-size: 10px&quot; color=&quot;#000000&quot;&gt;Reg&lt;br&gt;File&lt;/font&gt;" style="rounded=0;whiteSpace=wrap;html=1;strokeColor=#000000;fillColor=none;" parent="1" vertex="1">
                    <mxGeometry x="500" y="320" width="90" height="110" as="geometry"/>
                </mxCell>
                <mxCell id="12" value="" style="endArrow=none;html=1;rounded=0;strokeColor=#000000;" parent="1" edge="1">
                    <mxGeometry width="50" height="50" relative="1" as="geometry">
                        <mxPoint x="520" y="560" as="sourcePoint"/>
                        <mxPoint x="600" y="540" as="targetPoint"/>
                        <Array as="points">
                            <mxPoint x="520" y="580"/>
                            <mxPoint x="600" y="580"/>
                        </Array>
                    </mxGeometry>
                </mxCell>
                <mxCell id="13" value="" style="endArrow=none;html=1;rounded=0;strokeColor=#000000;" parent="1" edge="1">
                    <mxGeometry width="50" height="50" relative="1" as="geometry">
                        <mxPoint x="520" y="560" as="sourcePoint"/>
                        <mxPoint x="600" y="540" as="targetPoint"/>
                    </mxGeometry>
                </mxCell>
                <mxCell id="14" value="" style="rounded=0;whiteSpace=wrap;html=1;strokeColor=#000000;fillColor=#B0B0B0;" parent="1" vertex="1">
                    <mxGeometry x="630" y="120" width="20" height="490" as="geometry"/>
                </mxCell>
                <mxCell id="17" value="" style="endArrow=none;html=1;rounded=0;strokeColor=#000000;" parent="1" edge="1">
                    <mxGeometry width="50" height="50" relative="1" as="geometry">
                        <mxPoint x="768" y="348.5" as="sourcePoint"/>
                        <mxPoint x="768" y="318.5" as="targetPoint"/>
                        <Array as="points">
                            <mxPoint x="778" y="358.5"/>
                            <mxPoint x="768" y="368.5"/>
                            <mxPoint x="768" y="398.5"/>
                            <mxPoint x="808" y="378.5"/>
                            <mxPoint x="808" y="338.5"/>
                        </Array>
                    </mxGeometry>
                </mxCell>
                <mxCell id="18" value="" style="endArrow=none;html=1;rounded=0;strokeColor=#000000;" parent="1" edge="1">
                    <mxGeometry width="50" height="50" relative="1" as="geometry">
                        <mxPoint x="768" y="348.5" as="sourcePoint"/>
                        <mxPoint x="768" y="318.5" as="targetPoint"/>
                    </mxGeometry>
                </mxCell>
                <mxCell id="23" value="" style="endArrow=none;html=1;rounded=0;strokeColor=#000000;" parent="1" edge="1">
                    <mxGeometry width="50" height="50" relative="1" as="geometry">
                        <mxPoint x="780" y="570" as="sourcePoint"/>
                        <mxPoint x="780" y="550" as="targetPoint"/>
                        <Array as="points">
                            <mxPoint x="790" y="580"/>
                            <mxPoint x="780" y="590"/>
                            <mxPoint x="780" y="610"/>
                            <mxPoint x="810" y="590"/>
                            <mxPoint x="810" y="570"/>
                        </Array>
                    </mxGeometry>
                </mxCell>
                <mxCell id="24" value="" style="endArrow=none;html=1;rounded=0;strokeColor=#000000;" parent="1" edge="1">
                    <mxGeometry width="50" height="50" relative="1" as="geometry">
                        <mxPoint x="780" y="570" as="sourcePoint"/>
                        <mxPoint x="780" y="550" as="targetPoint"/>
                    </mxGeometry>
                </mxCell>
                <mxCell id="25" value="" style="rounded=0;whiteSpace=wrap;html=1;strokeColor=#000000;fillColor=#B0B0B0;" parent="1" vertex="1">
                    <mxGeometry x="850" y="120" width="20" height="490" as="geometry"/>
                </mxCell>
                <mxCell id="26" value="&lt;font color=&quot;#000000&quot;&gt;Data&lt;br&gt;Mem&lt;/font&gt;" style="rounded=0;whiteSpace=wrap;html=1;strokeColor=#000000;fillColor=none;" parent="1" vertex="1">
                    <mxGeometry x="917" y="340" width="90" height="110" as="geometry"/>
                </mxCell>
                <mxCell id="27" value="" style="rounded=0;whiteSpace=wrap;html=1;strokeColor=#000000;fillColor=#B0B0B0;" parent="1" vertex="1">
                    <mxGeometry x="1040" y="120" width="20" height="490" as="geometry"/>
                </mxCell>
                <mxCell id="28" value="" style="endArrow=none;html=1;strokeColor=#000000;rounded=0;" parent="1" edge="1">
                    <mxGeometry width="50" height="50" relative="1" as="geometry">
                        <mxPoint x="1080" y="370" as="sourcePoint"/>
                        <mxPoint x="1080" y="320" as="targetPoint"/>
                        <Array as="points">
                            <mxPoint x="1100" y="360"/>
                            <mxPoint x="1100" y="330"/>
                        </Array>
                    </mxGeometry>
                </mxCell>
                <mxCell id="29" value="" style="endArrow=none;html=1;rounded=0;strokeColor=#000000;" parent="1" edge="1">
                    <mxGeometry width="50" height="50" relative="1" as="geometry">
                        <mxPoint x="1080" y="370" as="sourcePoint"/>
                        <mxPoint x="1080" y="320" as="targetPoint"/>
                    </mxGeometry>
                </mxCell>
                <mxCell id="32" value="" style="endArrow=classicThin;html=1;rounded=0;strokeColor=#000000;endFill=1;" parent="1" target="5" edge="1">
                    <mxGeometry width="50" height="50" relative="1" as="geometry">
                        <mxPoint x="200" y="340" as="sourcePoint"/>
                        <mxPoint x="250" y="290" as="targetPoint"/>
                    </mxGeometry>
                </mxCell>
                <mxCell id="34" value="" style="endArrow=classicThin;html=1;rounded=0;strokeColor=#000000;exitX=0.568;exitY=0.572;exitDx=0;exitDy=0;exitPerimeter=0;endFill=1;" parent="1" source="40" edge="1">
                    <mxGeometry width="50" height="50" relative="1" as="geometry">
                        <mxPoint x="260" y="340" as="sourcePoint"/>
                        <mxPoint x="300" y="500" as="targetPoint"/>
                        <Array as="points">
                            <mxPoint x="250" y="500"/>
                        </Array>
                    </mxGeometry>
                </mxCell>
                <mxCell id="35" value="" style="endArrow=none;html=1;rounded=0;strokeColor=#000000;" parent="1" edge="1">
                    <mxGeometry width="50" height="50" relative="1" as="geometry">
                        <mxPoint x="299.9999999999998" y="510" as="sourcePoint"/>
                        <mxPoint x="299.9999999999998" y="490" as="targetPoint"/>
                        <Array as="points">
                            <mxPoint x="310" y="520"/>
                            <mxPoint x="300" y="530"/>
                            <mxPoint x="300" y="550"/>
                            <mxPoint x="330" y="530"/>
                            <mxPoint x="330" y="510"/>
                        </Array>
                    </mxGeometry>
                </mxCell>
                <mxCell id="36" value="" style="endArrow=none;html=1;rounded=0;strokeColor=#000000;" parent="1" edge="1">
                    <mxGeometry width="50" height="50" relative="1" as="geometry">
                        <mxPoint x="300" y="510" as="sourcePoint"/>
                        <mxPoint x="300" y="490" as="targetPoint"/>
                    </mxGeometry>
                </mxCell>
                <mxCell id="37" value="" style="endArrow=classicThin;html=1;rounded=0;strokeColor=#000000;exitX=0;exitY=0.98;exitDx=0;exitDy=0;exitPerimeter=0;endFill=1;" parent="1" source="7" edge="1">
                    <mxGeometry width="50" height="50" relative="1" as="geometry">
                        <mxPoint x="160" y="600" as="sourcePoint"/>
                        <mxPoint x="180" y="330" as="targetPoint"/>
                        <Array as="points">
                            <mxPoint x="160" y="600"/>
                            <mxPoint x="160" y="330"/>
                        </Array>
                    </mxGeometry>
                </mxCell>
                <mxCell id="38" value="" style="endArrow=none;html=1;rounded=0;strokeColor=#000000;" parent="1" edge="1">
                    <mxGeometry width="50" height="50" relative="1" as="geometry">
                        <mxPoint x="360" y="600" as="sourcePoint"/>
                        <mxPoint x="330" y="520" as="targetPoint"/>
                        <Array as="points">
                            <mxPoint x="360" y="520"/>
                        </Array>
                    </mxGeometry>
                </mxCell>
                <mxCell id="39" value="" style="shape=waypoint;sketch=0;size=6;pointerEvents=1;points=[];fillColor=none;resizable=0;rotatable=0;perimeter=centerPerimeter;snapToPoint=1;strokeColor=#000000;strokeWidth=0;" parent="1" vertex="1">
                    <mxGeometry x="340" y="580" width="40" height="40" as="geometry"/>
                </mxCell>
                <mxCell id="41" value="" style="edgeStyle=none;rounded=0;html=1;endArrow=none;endFill=1;strokeColor=#000000;entryDx=0;entryDy=0;entryPerimeter=0;" parent="1" source="5" target="40" edge="1">
                    <mxGeometry relative="1" as="geometry">
                        <mxPoint x="250" y="340" as="sourcePoint"/>
                        <mxPoint x="280" y="340.02" as="targetPoint"/>
                        <Array as="points"/>
                    </mxGeometry>
                </mxCell>
                <mxCell id="42" value="" style="endArrow=none;html=1;rounded=0;strokeColor=#000000;exitX=0;exitY=1;exitDx=0;exitDy=0;entryX=1;entryY=1;entryDx=0;entryDy=0;" parent="1" source="5" target="5" edge="1">
                    <mxGeometry width="50" height="50" relative="1" as="geometry">
                        <mxPoint x="460" y="440" as="sourcePoint"/>
                        <mxPoint x="240" y="380" as="targetPoint"/>
                        <Array as="points">
                            <mxPoint x="230" y="350"/>
                        </Array>
                    </mxGeometry>
                </mxCell>
                <mxCell id="43" value="" style="endArrow=none;html=1;rounded=0;strokeColor=#000000;exitX=0.999;exitY=0.182;exitDx=0;exitDy=0;exitPerimeter=0;entryX=0.01;entryY=0.449;entryDx=0;entryDy=0;entryPerimeter=0;" parent="1" source="6" target="7" edge="1">
                    <mxGeometry width="50" height="50" relative="1" as="geometry">
                        <mxPoint x="460" y="440" as="sourcePoint"/>
                        <mxPoint x="510" y="390" as="targetPoint"/>
                    </mxGeometry>
                </mxCell>
                <mxCell id="44" value="" style="endArrow=none;html=1;rounded=0;strokeColor=#000000;exitDx=0;exitDy=0;exitPerimeter=0;startArrow=none;" parent="1" source="52" edge="1">
                    <mxGeometry width="50" height="50" relative="1" as="geometry">
                        <mxPoint x="590" y="420" as="sourcePoint"/>
                        <mxPoint x="440" y="186" as="targetPoint"/>
                        <Array as="points">
                            <mxPoint x="420" y="186"/>
                        </Array>
                    </mxGeometry>
                </mxCell>
                <mxCell id="47" value="" style="endArrow=classicThin;html=1;rounded=0;strokeColor=#000000;entryX=0;entryY=0.182;entryDx=0;entryDy=0;entryPerimeter=0;endFill=1;" parent="1" target="9" edge="1">
                    <mxGeometry width="50" height="50" relative="1" as="geometry">
                        <mxPoint x="420" y="340" as="sourcePoint"/>
                        <mxPoint x="470" y="290" as="targetPoint"/>
                    </mxGeometry>
                </mxCell>
                <mxCell id="48" value="" style="endArrow=classicThin;html=1;rounded=0;strokeColor=#000000;entryX=0;entryY=0.364;entryDx=0;entryDy=0;entryPerimeter=0;endFill=1;" parent="1" target="9" edge="1">
                    <mxGeometry width="50" height="50" relative="1" as="geometry">
                        <mxPoint x="420" y="360" as="sourcePoint"/>
                        <mxPoint x="580" y="350" as="targetPoint"/>
                    </mxGeometry>
                </mxCell>
                <mxCell id="53" value="" style="endArrow=none;html=1;rounded=0;strokeColor=#000000;entryDx=0;entryDy=0;startArrow=none;" parent="1" source="252" target="52" edge="1">
                    <mxGeometry width="50" height="50" relative="1" as="geometry">
                        <mxPoint x="440" y="300" as="sourcePoint"/>
                        <mxPoint x="440" y="165" as="targetPoint"/>
                        <Array as="points"/>
                    </mxGeometry>
                </mxCell>
                <mxCell id="55" value="" style="endArrow=none;html=1;rounded=0;strokeColor=#000000;exitX=0.558;exitY=0.495;exitDx=0;exitDy=0;exitPerimeter=0;" parent="1" source="52" edge="1">
                    <mxGeometry width="50" height="50" relative="1" as="geometry">
                        <mxPoint x="520" y="240" as="sourcePoint"/>
                        <mxPoint x="440" y="200" as="targetPoint"/>
                    </mxGeometry>
                </mxCell>
                <mxCell id="56" value="" style="endArrow=classicThin;html=1;rounded=0;strokeColor=#000000;endFill=1;startArrow=none;" parent="1" edge="1">
                    <mxGeometry width="50" height="50" relative="1" as="geometry">
                        <mxPoint x="419" y="504.5" as="sourcePoint"/>
                        <mxPoint x="519" y="504" as="targetPoint"/>
                    </mxGeometry>
                </mxCell>
                <mxCell id="57" value="" style="endArrow=classicThin;html=1;rounded=0;strokeColor=#000000;endFill=1;" parent="1" edge="1">
                    <mxGeometry width="50" height="50" relative="1" as="geometry">
                        <mxPoint x="419" y="524" as="sourcePoint"/>
                        <mxPoint x="519" y="524" as="targetPoint"/>
                    </mxGeometry>
                </mxCell>
                <mxCell id="58" value="" style="endArrow=none;html=1;rounded=0;strokeColor=#000000;entryX=0;entryY=0.898;entryDx=0;entryDy=0;entryPerimeter=0;" parent="1" target="14" edge="1">
                    <mxGeometry width="50" height="50" relative="1" as="geometry">
                        <mxPoint x="600" y="560" as="sourcePoint"/>
                        <mxPoint x="650" y="560" as="targetPoint"/>
                    </mxGeometry>
                </mxCell>
                <mxCell id="59" value="" style="endArrow=classicThin;html=1;rounded=0;strokeColor=#000000;entryX=0;entryY=0.776;entryDx=0;entryDy=0;entryPerimeter=0;endFill=1;" parent="1" edge="1">
                    <mxGeometry width="50" height="50" relative="1" as="geometry">
                        <mxPoint x="540" y="513" as="sourcePoint"/>
                        <mxPoint x="630" y="513.24" as="targetPoint"/>
                    </mxGeometry>
                </mxCell>
                <mxCell id="60" value="" style="endArrow=none;html=1;rounded=0;strokeColor=#000000;" parent="1" edge="1">
                    <mxGeometry width="50" height="50" relative="1" as="geometry">
                        <mxPoint x="400" y="340" as="sourcePoint"/>
                        <mxPoint x="420" y="340" as="targetPoint"/>
                    </mxGeometry>
                </mxCell>
                <mxCell id="62" value="" style="endArrow=none;html=1;rounded=0;strokeColor=#000000;endFill=1;" parent="1" target="61" edge="1">
                    <mxGeometry width="50" height="50" relative="1" as="geometry">
                        <mxPoint x="420" y="490" as="sourcePoint"/>
                        <mxPoint x="520" y="490" as="targetPoint"/>
                    </mxGeometry>
                </mxCell>
                <mxCell id="64" value="" style="endArrow=none;html=1;rounded=0;strokeColor=#000000;entryX=0.018;entryY=0.449;entryDx=0;entryDy=0;entryPerimeter=0;exitX=1;exitY=0.182;exitDx=0;exitDy=0;exitPerimeter=0;" parent="1" source="9" target="14" edge="1">
                    <mxGeometry width="50" height="50" relative="1" as="geometry">
                        <mxPoint x="600" y="330" as="sourcePoint"/>
                        <mxPoint x="640" y="350" as="targetPoint"/>
                    </mxGeometry>
                </mxCell>
                <mxCell id="65" value="" style="endArrow=none;html=1;rounded=0;strokeColor=#000000;entryX=0;entryY=0.531;entryDx=0;entryDy=0;entryPerimeter=0;exitX=1;exitY=0.547;exitDx=0;exitDy=0;exitPerimeter=0;" parent="1" source="9" target="14" edge="1">
                    <mxGeometry width="50" height="50" relative="1" as="geometry">
                        <mxPoint x="610" y="380" as="sourcePoint"/>
                        <mxPoint x="660" y="330" as="targetPoint"/>
                    </mxGeometry>
                </mxCell>
                <mxCell id="67" value="" style="endArrow=classicThin;html=1;rounded=0;strokeColor=#000000;endFill=1;" parent="1" edge="1">
                    <mxGeometry width="50" height="50" relative="1" as="geometry">
                        <mxPoint x="650" y="380" as="sourcePoint"/>
                        <mxPoint x="721" y="380" as="targetPoint"/>
                    </mxGeometry>
                </mxCell>
                <mxCell id="68" value="" style="endArrow=classicThin;html=1;rounded=0;strokeColor=#000000;endFill=1;" parent="1" edge="1">
                    <mxGeometry width="50" height="50" relative="1" as="geometry">
                        <mxPoint x="650" y="560" as="sourcePoint"/>
                        <mxPoint x="715" y="560" as="targetPoint"/>
                    </mxGeometry>
                </mxCell>
                <mxCell id="69" value="" style="endArrow=none;html=1;rounded=0;strokeColor=#000000;exitX=1;exitY=0.98;exitDx=0;exitDy=0;exitPerimeter=0;entryX=0;entryY=0.98;entryDx=0;entryDy=0;entryPerimeter=0;" parent="1" source="7" target="14" edge="1">
                    <mxGeometry width="50" height="50" relative="1" as="geometry">
                        <mxPoint x="420" y="600" as="sourcePoint"/>
                        <mxPoint x="490" y="500" as="targetPoint"/>
                    </mxGeometry>
                </mxCell>
                <mxCell id="70" value="" style="endArrow=classicThin;html=1;rounded=0;strokeColor=#000000;endFill=1;" parent="1" edge="1">
                    <mxGeometry width="50" height="50" relative="1" as="geometry">
                        <mxPoint x="650" y="600" as="sourcePoint"/>
                        <mxPoint x="780" y="600" as="targetPoint"/>
                    </mxGeometry>
                </mxCell>
                <mxCell id="72" value="" style="endArrow=classicThin;html=1;rounded=0;strokeColor=#000000;endFill=1;" parent="1" edge="1">
                    <mxGeometry width="50" height="50" relative="1" as="geometry">
                        <mxPoint x="741" y="390" as="sourcePoint"/>
                        <mxPoint x="768" y="390" as="targetPoint"/>
                    </mxGeometry>
                </mxCell>
                <mxCell id="73" value="" style="endArrow=classicThin;html=1;rounded=0;strokeColor=#000000;startArrow=none;endFill=1;" parent="1" source="74" edge="1">
                    <mxGeometry width="50" height="50" relative="1" as="geometry">
                        <mxPoint x="680" y="560" as="sourcePoint"/>
                        <mxPoint x="720" y="370" as="targetPoint"/>
                        <Array as="points">
                            <mxPoint x="680" y="370"/>
                        </Array>
                    </mxGeometry>
                </mxCell>
                <mxCell id="74" value="" style="shape=waypoint;sketch=0;size=6;pointerEvents=1;points=[];fillColor=none;resizable=0;rotatable=0;perimeter=centerPerimeter;snapToPoint=1;strokeColor=#000000;strokeWidth=0;" parent="1" vertex="1">
                    <mxGeometry x="660" y="540" width="40" height="40" as="geometry"/>
                </mxCell>
                <mxCell id="75" value="" style="endArrow=none;html=1;rounded=0;strokeColor=#000000;" parent="1" target="74" edge="1">
                    <mxGeometry width="50" height="50" relative="1" as="geometry">
                        <mxPoint x="680" y="560" as="sourcePoint"/>
                        <mxPoint x="700" y="400" as="targetPoint"/>
                        <Array as="points"/>
                    </mxGeometry>
                </mxCell>
                <mxCell id="76" value="" style="endArrow=classicThin;html=1;rounded=0;strokeColor=#000000;endFill=1;" parent="1" edge="1">
                    <mxGeometry width="50" height="50" relative="1" as="geometry">
                        <mxPoint x="745" y="560" as="sourcePoint"/>
                        <mxPoint x="780" y="560" as="targetPoint"/>
                    </mxGeometry>
                </mxCell>
                <mxCell id="77" value="" style="endArrow=none;html=1;rounded=0;strokeColor=#000000;entryX=0.002;entryY=0.49;entryDx=0;entryDy=0;entryPerimeter=0;" parent="1" target="25" edge="1">
                    <mxGeometry width="50" height="50" relative="1" as="geometry">
                        <mxPoint x="808" y="360" as="sourcePoint"/>
                        <mxPoint x="850" y="360" as="targetPoint"/>
                    </mxGeometry>
                </mxCell>
                <mxCell id="78" value="" style="endArrow=classicThin;html=1;rounded=0;strokeColor=#000000;endFill=1;" parent="1" edge="1">
                    <mxGeometry width="50" height="50" relative="1" as="geometry">
                        <mxPoint x="810" y="580" as="sourcePoint"/>
                        <mxPoint x="180" y="350" as="targetPoint"/>
                        <Array as="points">
                            <mxPoint x="820" y="580"/>
                            <mxPoint x="820" y="620"/>
                            <mxPoint x="140" y="620"/>
                            <mxPoint x="140" y="350"/>
                        </Array>
                    </mxGeometry>
                </mxCell>
                <mxCell id="80" value="" style="shape=waypoint;sketch=0;size=6;pointerEvents=1;points=[];fillColor=none;resizable=0;rotatable=0;perimeter=centerPerimeter;snapToPoint=1;strokeColor=#000000;strokeWidth=0;" parent="1" vertex="1">
                    <mxGeometry x="640" y="360" width="40" height="40" as="geometry"/>
                </mxCell>
                <mxCell id="81" value="" style="endArrow=none;html=1;rounded=0;strokeColor=#000000;" parent="1" source="80" edge="1">
                    <mxGeometry width="50" height="50" relative="1" as="geometry">
                        <mxPoint x="805" y="480" as="sourcePoint"/>
                        <mxPoint x="850" y="430" as="targetPoint"/>
                        <Array as="points">
                            <mxPoint x="660" y="430"/>
                        </Array>
                    </mxGeometry>
                </mxCell>
                <mxCell id="82" value="" style="endArrow=classicThin;html=1;rounded=0;strokeColor=#000000;entryX=0;entryY=0.182;entryDx=0;entryDy=0;entryPerimeter=0;endFill=1;exitX=1;exitY=0.49;exitDx=0;exitDy=0;exitPerimeter=0;" parent="1" source="25" target="26" edge="1">
                    <mxGeometry width="50" height="50" relative="1" as="geometry">
                        <mxPoint x="880" y="350" as="sourcePoint"/>
                        <mxPoint x="925" y="310" as="targetPoint"/>
                        <Array as="points"/>
                    </mxGeometry>
                </mxCell>
                <mxCell id="83" value="" style="endArrow=classicThin;html=1;rounded=0;strokeColor=#000000;endFill=1;exitX=1;exitY=0.632;exitDx=0;exitDy=0;exitPerimeter=0;entryX=-0.011;entryY=0.82;entryDx=0;entryDy=0;entryPerimeter=0;" parent="1" source="25" target="26" edge="1">
                    <mxGeometry width="50" height="50" relative="1" as="geometry">
                        <mxPoint x="890" y="410" as="sourcePoint"/>
                        <mxPoint x="910" y="430" as="targetPoint"/>
                    </mxGeometry>
                </mxCell>
                <mxCell id="84" value="" style="endArrow=classicThin;html=1;rounded=0;strokeColor=#000000;endFill=1;entryX=0;entryY=0.49;entryDx=0;entryDy=0;entryPerimeter=0;exitX=0.998;exitY=0.509;exitDx=0;exitDy=0;exitPerimeter=0;" parent="1" source="219" target="27" edge="1">
                    <mxGeometry width="50" height="50" relative="1" as="geometry">
                        <mxPoint x="1010" y="360" as="sourcePoint"/>
                        <mxPoint x="1030" y="350" as="targetPoint"/>
                    </mxGeometry>
                </mxCell>
                <mxCell id="85" value="" style="endArrow=classicThin;html=1;rounded=0;strokeColor=#000000;entryX=0;entryY=0.776;entryDx=0;entryDy=0;entryPerimeter=0;endFill=1;" parent="1" edge="1">
                    <mxGeometry width="50" height="50" relative="1" as="geometry">
                        <mxPoint x="650" y="514" as="sourcePoint"/>
                        <mxPoint x="850" y="514.24" as="targetPoint"/>
                    </mxGeometry>
                </mxCell>
                <mxCell id="86" value="" style="endArrow=classicThin;html=1;rounded=0;strokeColor=#000000;entryX=0;entryY=0.776;entryDx=0;entryDy=0;entryPerimeter=0;endFill=1;" parent="1" edge="1">
                    <mxGeometry width="50" height="50" relative="1" as="geometry">
                        <mxPoint x="870" y="515" as="sourcePoint"/>
                        <mxPoint x="1040" y="515.24" as="targetPoint"/>
                    </mxGeometry>
                </mxCell>
                <mxCell id="87" value="" style="endArrow=classicThin;html=1;rounded=0;strokeColor=#000000;entryX=0;entryY=0.429;entryDx=0;entryDy=0;entryPerimeter=0;endFill=1;" parent="1" target="27" edge="1">
                    <mxGeometry width="50" height="50" relative="1" as="geometry">
                        <mxPoint x="890" y="360" as="sourcePoint"/>
                        <mxPoint x="940" y="310" as="targetPoint"/>
                        <Array as="points">
                            <mxPoint x="890" y="310"/>
                            <mxPoint x="1020" y="310"/>
                            <mxPoint x="1020" y="330"/>
                        </Array>
                    </mxGeometry>
                </mxCell>
                <mxCell id="88" value="" style="endArrow=classicThin;html=1;rounded=0;strokeColor=#000000;endFill=1;" parent="1" edge="1">
                    <mxGeometry width="50" height="50" relative="1" as="geometry">
                        <mxPoint x="1060" y="330" as="sourcePoint"/>
                        <mxPoint x="1080" y="330" as="targetPoint"/>
                    </mxGeometry>
                </mxCell>
                <mxCell id="89" value="" style="endArrow=classicThin;html=1;rounded=0;strokeColor=#000000;endFill=1;" parent="1" edge="1">
                    <mxGeometry width="50" height="50" relative="1" as="geometry">
                        <mxPoint x="1060" y="360" as="sourcePoint"/>
                        <mxPoint x="1080" y="360" as="targetPoint"/>
                    </mxGeometry>
                </mxCell>
                <mxCell id="90" value="" style="endArrow=classic;html=1;rounded=0;strokeColor=#000000;entryX=0;entryY=0.75;entryDx=0;entryDy=0;" parent="1" target="9" edge="1">
                    <mxGeometry width="50" height="50" relative="1" as="geometry">
                        <mxPoint x="1100" y="345" as="sourcePoint"/>
                        <mxPoint x="1150" y="295" as="targetPoint"/>
                        <Array as="points">
                            <mxPoint x="1120" y="345"/>
                            <mxPoint x="1120" y="640"/>
                            <mxPoint x="460" y="640"/>
                            <mxPoint x="460" y="403"/>
                        </Array>
                    </mxGeometry>
                </mxCell>
                <mxCell id="91" value="" style="endArrow=classic;html=1;rounded=0;strokeColor=#000000;exitX=1.016;exitY=0.808;exitDx=0;exitDy=0;exitPerimeter=0;" parent="1" edge="1" source="27">
                    <mxGeometry width="50" height="50" relative="1" as="geometry">
                        <mxPoint x="1070" y="514" as="sourcePoint"/>
                        <mxPoint x="500" y="380" as="targetPoint"/>
                        <Array as="points">
                            <mxPoint x="1090" y="516"/>
                            <mxPoint x="1090" y="653"/>
                            <mxPoint x="440" y="653"/>
                            <mxPoint x="440" y="380"/>
                        </Array>
                    </mxGeometry>
                </mxCell>
                <mxCell id="92" value="" style="endArrow=none;html=1;rounded=0;strokeColor=#000000;" parent="1" edge="1">
                    <mxGeometry width="50" height="50" relative="1" as="geometry">
                        <mxPoint x="1040" y="610" as="sourcePoint"/>
                        <mxPoint x="1060" y="610" as="targetPoint"/>
                        <Array as="points">
                            <mxPoint x="1050" y="600"/>
                        </Array>
                    </mxGeometry>
                </mxCell>
                <mxCell id="93" value="" style="endArrow=none;html=1;rounded=0;strokeColor=#000000;" parent="1" edge="1">
                    <mxGeometry width="50" height="50" relative="1" as="geometry">
                        <mxPoint x="630" y="610" as="sourcePoint"/>
                        <mxPoint x="650" y="610" as="targetPoint"/>
                        <Array as="points">
                            <mxPoint x="640" y="600"/>
                        </Array>
                    </mxGeometry>
                </mxCell>
                <mxCell id="94" value="" style="endArrow=none;html=1;rounded=0;strokeColor=#000000;" parent="1" edge="1">
                    <mxGeometry width="50" height="50" relative="1" as="geometry">
                        <mxPoint x="850" y="610" as="sourcePoint"/>
                        <mxPoint x="870" y="610" as="targetPoint"/>
                        <Array as="points">
                            <mxPoint x="860" y="600"/>
                        </Array>
                    </mxGeometry>
                </mxCell>
                <mxCell id="95" value="" style="endArrow=none;html=1;rounded=0;strokeColor=#000000;" parent="1" edge="1">
                    <mxGeometry width="50" height="50" relative="1" as="geometry">
                        <mxPoint x="380" y="610" as="sourcePoint"/>
                        <mxPoint x="400" y="610" as="targetPoint"/>
                        <Array as="points">
                            <mxPoint x="390" y="600"/>
                        </Array>
                    </mxGeometry>
                </mxCell>
                <mxCell id="96" value="" style="endArrow=none;html=1;rounded=0;strokeColor=#000000;" parent="1" edge="1">
                    <mxGeometry width="50" height="50" relative="1" as="geometry">
                        <mxPoint x="535" y="430" as="sourcePoint"/>
                        <mxPoint x="555" y="430" as="targetPoint"/>
                        <Array as="points">
                            <mxPoint x="545" y="420"/>
                        </Array>
                    </mxGeometry>
                </mxCell>
                <mxCell id="100" value="" style="endArrow=none;html=1;rounded=0;strokeColor=#000000;" parent="1" edge="1">
                    <mxGeometry width="50" height="50" relative="1" as="geometry">
                        <mxPoint x="945" y="450" as="sourcePoint"/>
                        <mxPoint x="965" y="450" as="targetPoint"/>
                        <Array as="points">
                            <mxPoint x="955" y="440"/>
                        </Array>
                    </mxGeometry>
                </mxCell>
                <mxCell id="104" value="" style="ellipse;whiteSpace=wrap;html=1;aspect=fixed;labelBorderColor=#000000;strokeColor=#000000;strokeWidth=1;fillColor=none;perimeterSpacing=0;" parent="1" vertex="1">
                    <mxGeometry x="543" y="430" width="4" height="4" as="geometry"/>
                </mxCell>
                <mxCell id="106" value="" style="endArrow=none;html=1;rounded=0;strokeColor=#000000;" parent="1" edge="1">
                    <mxGeometry width="50" height="50" relative="1" as="geometry">
                        <mxPoint x="545" y="440" as="sourcePoint"/>
                        <mxPoint x="544.88" y="434" as="targetPoint"/>
                    </mxGeometry>
                </mxCell>
                <mxCell id="107" value="" style="endArrow=none;html=1;rounded=0;strokeColor=#000000;" parent="1" edge="1">
                    <mxGeometry width="50" height="50" relative="1" as="geometry">
                        <mxPoint x="229.92000000000002" y="366" as="sourcePoint"/>
                        <mxPoint x="229.8" y="360" as="targetPoint"/>
                    </mxGeometry>
                </mxCell>
                <mxCell id="108" value="" style="endArrow=none;html=1;rounded=0;strokeColor=#000000;" parent="1" edge="1">
                    <mxGeometry width="50" height="50" relative="1" as="geometry">
                        <mxPoint x="390" y="625" as="sourcePoint"/>
                        <mxPoint x="389.79999999999995" y="610" as="targetPoint"/>
                    </mxGeometry>
                </mxCell>
                <mxCell id="109" value="" style="endArrow=none;html=1;rounded=0;strokeColor=#000000;" parent="1" edge="1">
                    <mxGeometry width="50" height="50" relative="1" as="geometry">
                        <mxPoint x="639.8" y="625" as="sourcePoint"/>
                        <mxPoint x="639.5999999999999" y="610" as="targetPoint"/>
                    </mxGeometry>
                </mxCell>
                <mxCell id="110" value="" style="endArrow=none;html=1;rounded=0;strokeColor=#000000;" parent="1" edge="1">
                    <mxGeometry width="50" height="50" relative="1" as="geometry">
                        <mxPoint x="859.9100000000001" y="625" as="sourcePoint"/>
                        <mxPoint x="859.71" y="610" as="targetPoint"/>
                    </mxGeometry>
                </mxCell>
                <mxCell id="111" value="" style="endArrow=none;html=1;rounded=0;strokeColor=#000000;" parent="1" edge="1">
                    <mxGeometry width="50" height="50" relative="1" as="geometry">
                        <mxPoint x="1050.03" y="625" as="sourcePoint"/>
                        <mxPoint x="1049.83" y="610" as="targetPoint"/>
                    </mxGeometry>
                </mxCell>
                <mxCell id="112" value="" style="endArrow=none;html=1;rounded=0;strokeColor=#000000;" parent="1" edge="1">
                    <mxGeometry width="50" height="50" relative="1" as="geometry">
                        <mxPoint x="955" y="460" as="sourcePoint"/>
                        <mxPoint x="954.7600000000001" y="450" as="targetPoint"/>
                    </mxGeometry>
                </mxCell>
                <mxCell id="113" value="" style="endArrow=classicThin;html=1;rounded=0;strokeColor=#000000;entryX=0;entryY=0.163;entryDx=0;entryDy=0;entryPerimeter=0;endFill=1;dashed=1;" parent="1" target="14" edge="1">
                    <mxGeometry width="50" height="50" relative="1" as="geometry">
                        <mxPoint x="490" y="200" as="sourcePoint"/>
                        <mxPoint x="540" y="150" as="targetPoint"/>
                    </mxGeometry>
                </mxCell>
                <mxCell id="116" value="" style="endArrow=classicThin;html=1;rounded=0;strokeColor=#000000;entryX=0;entryY=0.163;entryDx=0;entryDy=0;entryPerimeter=0;endFill=1;dashed=1;" parent="1" edge="1">
                    <mxGeometry width="50" height="50" relative="1" as="geometry">
                        <mxPoint x="490" y="158.12999999999988" as="sourcePoint"/>
                        <mxPoint x="630" y="158" as="targetPoint"/>
                    </mxGeometry>
                </mxCell>
                <mxCell id="117" value="" style="endArrow=classicThin;html=1;rounded=0;strokeColor=#000000;entryX=0;entryY=0.163;entryDx=0;entryDy=0;entryPerimeter=0;endFill=1;dashed=1;" parent="1" edge="1">
                    <mxGeometry width="50" height="50" relative="1" as="geometry">
                        <mxPoint x="490" y="172.12999999999988" as="sourcePoint"/>
                        <mxPoint x="630" y="172" as="targetPoint"/>
                    </mxGeometry>
                </mxCell>
                <mxCell id="118" value="" style="endArrow=classicThin;html=1;rounded=0;strokeColor=#000000;entryX=0;entryY=0.163;entryDx=0;entryDy=0;entryPerimeter=0;endFill=1;dashed=1;" parent="1" edge="1">
                    <mxGeometry width="50" height="50" relative="1" as="geometry">
                        <mxPoint x="490" y="186.12999999999988" as="sourcePoint"/>
                        <mxPoint x="630" y="186" as="targetPoint"/>
                    </mxGeometry>
                </mxCell>
                <mxCell id="123" value="" style="endArrow=classicThin;html=1;rounded=0;strokeColor=#000000;entryX=0;entryY=0.163;entryDx=0;entryDy=0;entryPerimeter=0;endFill=1;dashed=1;" parent="1" edge="1">
                    <mxGeometry width="50" height="50" relative="1" as="geometry">
                        <mxPoint x="490" y="144.12999999999988" as="sourcePoint"/>
                        <mxPoint x="630" y="144" as="targetPoint"/>
                    </mxGeometry>
                </mxCell>
                <mxCell id="124" value="" style="endArrow=classicThin;html=1;rounded=0;strokeColor=#000000;entryX=0;entryY=0.163;entryDx=0;entryDy=0;entryPerimeter=0;endFill=1;dashed=1;" parent="1" edge="1">
                    <mxGeometry width="50" height="50" relative="1" as="geometry">
                        <mxPoint x="490" y="130.12999999999988" as="sourcePoint"/>
                        <mxPoint x="630" y="130" as="targetPoint"/>
                    </mxGeometry>
                </mxCell>
                <mxCell id="125" value="" style="endArrow=classicThin;html=1;rounded=0;dashed=1;strokeColor=#000000;endFill=1;" parent="1" edge="1">
                    <mxGeometry width="50" height="50" relative="1" as="geometry">
                        <mxPoint x="650" y="200" as="sourcePoint"/>
                        <mxPoint x="732" y="365" as="targetPoint"/>
                        <Array as="points">
                            <mxPoint x="750" y="200"/>
                            <mxPoint x="750" y="352"/>
                            <mxPoint x="732" y="352"/>
                        </Array>
                    </mxGeometry>
                </mxCell>
                <mxCell id="126" value="" style="verticalLabelPosition=bottom;shadow=0;dashed=0;align=center;html=1;verticalAlign=top;shape=mxgraph.electrical.logic_gates.logic_gate;operation=and;labelBorderColor=#000000;strokeColor=#000000;strokeWidth=1;fillColor=none;rotation=-90;" parent="1" vertex="1">
                    <mxGeometry x="808" y="166.75" width="20.5" height="11.5" as="geometry"/>
                </mxCell>
                <mxCell id="127" value="" style="endArrow=none;html=1;rounded=0;dashed=1;strokeColor=#000000;entryX=0;entryY=0.25;entryDx=0;entryDy=0;entryPerimeter=0;" parent="1" target="126" edge="1">
                    <mxGeometry width="50" height="50" relative="1" as="geometry">
                        <mxPoint x="650" y="187" as="sourcePoint"/>
                        <mxPoint x="700" y="137" as="targetPoint"/>
                        <Array as="points">
                            <mxPoint x="815" y="187"/>
                        </Array>
                    </mxGeometry>
                </mxCell>
                <mxCell id="128" value="" style="endArrow=none;html=1;rounded=0;dashed=1;strokeColor=#000000;entryX=0;entryY=0.75;entryDx=0;entryDy=0;entryPerimeter=0;" parent="1" target="126" edge="1">
                    <mxGeometry width="50" height="50" relative="1" as="geometry">
                        <mxPoint x="808" y="348" as="sourcePoint"/>
                        <mxPoint x="840" y="298" as="targetPoint"/>
                        <Array as="points">
                            <mxPoint x="821" y="348"/>
                        </Array>
                    </mxGeometry>
                </mxCell>
                <mxCell id="129" value="" style="endArrow=classicThin;html=1;rounded=0;dashed=1;strokeColor=#000000;exitX=1.007;exitY=0.105;exitDx=0;exitDy=0;exitPerimeter=0;endFill=1;" parent="1" source="14" edge="1">
                    <mxGeometry width="50" height="50" relative="1" as="geometry">
                        <mxPoint x="666" y="168" as="sourcePoint"/>
                        <mxPoint x="790" y="329" as="targetPoint"/>
                        <Array as="points">
                            <mxPoint x="790" y="171"/>
                        </Array>
                    </mxGeometry>
                </mxCell>
                <mxCell id="130" value="" style="endArrow=classicThin;html=1;rounded=0;dashed=1;strokeColor=#000000;endFill=1;exitX=1;exitY=0.5;exitDx=0;exitDy=0;exitPerimeter=0;" parent="1" source="126" edge="1">
                    <mxGeometry width="50" height="50" relative="1" as="geometry">
                        <mxPoint x="808" y="161" as="sourcePoint"/>
                        <mxPoint x="188" y="324" as="targetPoint"/>
                        <Array as="points">
                            <mxPoint x="818" y="89"/>
                            <mxPoint x="188" y="89"/>
                        </Array>
                    </mxGeometry>
                </mxCell>
                <mxCell id="131" value="" style="endArrow=classicThin;html=1;rounded=0;strokeColor=#000000;endFill=1;dashed=1;entryX=-0.023;entryY=0.08;entryDx=0;entryDy=0;entryPerimeter=0;" parent="1" target="25" edge="1">
                    <mxGeometry width="50" height="50" relative="1" as="geometry">
                        <mxPoint x="650" y="159.12999999999988" as="sourcePoint"/>
                        <mxPoint x="844" y="159" as="targetPoint"/>
                    </mxGeometry>
                </mxCell>
                <mxCell id="133" value="" style="endArrow=classicThin;html=1;rounded=0;strokeColor=#000000;endFill=1;dashed=1;entryX=-0.023;entryY=0.08;entryDx=0;entryDy=0;entryPerimeter=0;" parent="1" edge="1">
                    <mxGeometry width="50" height="50" relative="1" as="geometry">
                        <mxPoint x="650.46" y="143.9999999999999" as="sourcePoint"/>
                        <mxPoint x="850" y="144.07" as="targetPoint"/>
                    </mxGeometry>
                </mxCell>
                <mxCell id="134" value="" style="endArrow=classicThin;html=1;rounded=0;strokeColor=#000000;endFill=1;dashed=1;entryX=-0.023;entryY=0.08;entryDx=0;entryDy=0;entryPerimeter=0;" parent="1" edge="1">
                    <mxGeometry width="50" height="50" relative="1" as="geometry">
                        <mxPoint x="650.46" y="129.9999999999999" as="sourcePoint"/>
                        <mxPoint x="850" y="130.07" as="targetPoint"/>
                    </mxGeometry>
                </mxCell>
                <mxCell id="135" value="" style="endArrow=classicThin;html=1;rounded=0;strokeColor=#000000;endFill=1;dashed=1;entryX=0.5;entryY=0;entryDx=0;entryDy=0;" parent="1" target="26" edge="1">
                    <mxGeometry width="50" height="50" relative="1" as="geometry">
                        <mxPoint x="870" y="159.9999999999999" as="sourcePoint"/>
                        <mxPoint x="1069.54" y="160.07" as="targetPoint"/>
                        <Array as="points">
                            <mxPoint x="962" y="160"/>
                        </Array>
                    </mxGeometry>
                </mxCell>
                <mxCell id="136" value="" style="endArrow=classicThin;html=1;rounded=0;dashed=1;strokeColor=#000000;entryX=-0.03;entryY=0.052;entryDx=0;entryDy=0;entryPerimeter=0;endFill=1;" parent="1" target="27" edge="1">
                    <mxGeometry width="50" height="50" relative="1" as="geometry">
                        <mxPoint x="870" y="145" as="sourcePoint"/>
                        <mxPoint x="1029" y="145" as="targetPoint"/>
                    </mxGeometry>
                </mxCell>
                <mxCell id="137" value="" style="endArrow=classicThin;html=1;rounded=0;dashed=1;strokeColor=#000000;entryX=-0.03;entryY=0.052;entryDx=0;entryDy=0;entryPerimeter=0;endFill=1;" parent="1" edge="1">
                    <mxGeometry width="50" height="50" relative="1" as="geometry">
                        <mxPoint x="870.6" y="130" as="sourcePoint"/>
                        <mxPoint x="1039.9999999999998" y="130.48000000000002" as="targetPoint"/>
                    </mxGeometry>
                </mxCell>
                <mxCell id="138" value="" style="endArrow=classicThin;html=1;rounded=0;dashed=1;strokeColor=#000000;endFill=1;" parent="1" edge="1">
                    <mxGeometry width="50" height="50" relative="1" as="geometry">
                        <mxPoint x="1060" y="146" as="sourcePoint"/>
                        <mxPoint x="1091" y="325" as="targetPoint"/>
                        <Array as="points">
                            <mxPoint x="1091" y="146"/>
                        </Array>
                    </mxGeometry>
                </mxCell>
                <mxCell id="140" value="" style="endArrow=classicThin;html=1;rounded=0;dashed=1;strokeColor=#000000;entryX=0.5;entryY=0;entryDx=0;entryDy=0;endFill=1;" parent="1" target="9" edge="1">
                    <mxGeometry width="50" height="50" relative="1" as="geometry">
                        <mxPoint x="1060" y="131" as="sourcePoint"/>
                        <mxPoint x="1229.3999999999999" y="131.48000000000013" as="targetPoint"/>
                        <Array as="points">
                            <mxPoint x="1106" y="131"/>
                            <mxPoint x="1106" y="111"/>
                            <mxPoint x="545" y="111"/>
                        </Array>
                    </mxGeometry>
                </mxCell>
                <mxCell id="141" value="" style="endArrow=classicThin;html=1;rounded=0;strokeColor=#000000;endFill=1;" parent="1" edge="1">
                    <mxGeometry width="50" height="50" relative="1" as="geometry">
                        <mxPoint x="250" y="540" as="sourcePoint"/>
                        <mxPoint x="300" y="540" as="targetPoint"/>
                    </mxGeometry>
                </mxCell>
                <mxCell id="142" value="&lt;font color=&quot;#000000&quot; style=&quot;font-size: 10px&quot;&gt;0&lt;/font&gt;" style="text;html=1;align=center;verticalAlign=middle;resizable=0;points=[];autosize=1;strokeColor=none;fillColor=none;" parent="1" vertex="1">
                    <mxGeometry x="176" y="321" width="16" height="19" as="geometry"/>
                </mxCell>
                <mxCell id="145" value="&lt;font style=&quot;font-size: 10px&quot;&gt;PC+4&lt;/font&gt;" style="text;html=1;align=center;verticalAlign=middle;resizable=0;points=[];autosize=1;strokeColor=none;fillColor=none;fontSize=8;fontColor=#000000;" parent="1" vertex="1">
                    <mxGeometry x="142" y="315" width="35" height="15" as="geometry"/>
                </mxCell>
                <mxCell id="146" value="&lt;font style=&quot;font-size: 10px&quot;&gt;CLK&lt;/font&gt;" style="text;html=1;align=center;verticalAlign=middle;resizable=0;points=[];autosize=1;strokeColor=none;fillColor=none;fontSize=8;fontColor=#000000;" parent="1" vertex="1">
                    <mxGeometry x="216" y="366" width="29" height="15" as="geometry"/>
                </mxCell>
                <mxCell id="147" value="&lt;font style=&quot;font-size: 10px&quot;&gt;A&lt;/font&gt;" style="text;html=1;align=center;verticalAlign=middle;resizable=0;points=[];autosize=1;strokeColor=none;fillColor=none;fontSize=8;fontColor=#000000;" parent="1" vertex="1">
                    <mxGeometry x="272" y="333" width="17" height="15" as="geometry"/>
                </mxCell>
                <mxCell id="148" value="&lt;font style=&quot;font-size: 10px&quot;&gt;RD&lt;/font&gt;" style="text;html=1;align=center;verticalAlign=middle;resizable=0;points=[];autosize=1;strokeColor=none;fillColor=none;fontSize=8;fontColor=#000000;" parent="1" vertex="1">
                    <mxGeometry x="330" y="333" width="24" height="15" as="geometry"/>
                </mxCell>
                <mxCell id="149" value="+" style="text;html=1;align=center;verticalAlign=middle;resizable=0;points=[];autosize=1;strokeColor=none;fillColor=none;fontSize=10;fontColor=#000000;" parent="1" vertex="1">
                    <mxGeometry x="311" y="514" width="16" height="16" as="geometry"/>
                </mxCell>
                <mxCell id="150" value="4" style="text;html=1;align=center;verticalAlign=middle;resizable=0;points=[];autosize=1;strokeColor=none;fillColor=none;fontSize=10;fontColor=#000000;" parent="1" vertex="1">
                    <mxGeometry x="230" y="532" width="16" height="16" as="geometry"/>
                </mxCell>
                <mxCell id="151" value="PC+4" style="text;html=1;align=center;verticalAlign=middle;resizable=0;points=[];autosize=1;strokeColor=none;fillColor=none;fontSize=10;fontColor=#000000;" parent="1" vertex="1">
                    <mxGeometry x="324.5" y="602" width="35" height="16" as="geometry"/>
                </mxCell>
                <mxCell id="152" value="&lt;font style=&quot;font-size: 10px&quot;&gt;CLK&lt;/font&gt;" style="text;html=1;align=center;verticalAlign=middle;resizable=0;points=[];autosize=1;strokeColor=none;fillColor=none;fontSize=8;fontColor=#000000;" parent="1" vertex="1">
                    <mxGeometry x="375.5" y="624" width="29" height="15" as="geometry"/>
                </mxCell>
                <mxCell id="153" value="&lt;font style=&quot;font-size: 10px&quot;&gt;CLK&lt;/font&gt;" style="text;html=1;align=center;verticalAlign=middle;resizable=0;points=[];autosize=1;strokeColor=none;fillColor=none;fontSize=8;fontColor=#000000;" parent="1" vertex="1">
                    <mxGeometry x="625.5" y="624" width="29" height="15" as="geometry"/>
                </mxCell>
                <mxCell id="154" value="&lt;font style=&quot;font-size: 10px&quot;&gt;CLK&lt;/font&gt;" style="text;html=1;align=center;verticalAlign=middle;resizable=0;points=[];autosize=1;strokeColor=none;fillColor=none;fontSize=8;fontColor=#000000;" parent="1" vertex="1">
                    <mxGeometry x="530.5" y="442" width="29" height="15" as="geometry"/>
                </mxCell>
                <mxCell id="155" value="&lt;font style=&quot;font-size: 10px&quot;&gt;CLK&lt;/font&gt;" style="text;html=1;align=center;verticalAlign=middle;resizable=0;points=[];autosize=1;strokeColor=none;fillColor=none;fontSize=8;fontColor=#000000;" parent="1" vertex="1">
                    <mxGeometry x="940.5" y="460" width="29" height="15" as="geometry"/>
                </mxCell>
                <mxCell id="156" value="&lt;font style=&quot;font-size: 10px&quot;&gt;CLK&lt;/font&gt;" style="text;html=1;align=center;verticalAlign=middle;resizable=0;points=[];autosize=1;strokeColor=none;fillColor=none;fontSize=8;fontColor=#000000;" parent="1" vertex="1">
                    <mxGeometry x="845.5" y="624" width="29" height="15" as="geometry"/>
                </mxCell>
                <mxCell id="157" value="&lt;font style=&quot;font-size: 10px&quot;&gt;CLK&lt;/font&gt;" style="text;html=1;align=center;verticalAlign=middle;resizable=0;points=[];autosize=1;strokeColor=none;fillColor=none;fontSize=8;fontColor=#000000;" parent="1" vertex="1">
                    <mxGeometry x="1035.5" y="624" width="29" height="15" as="geometry"/>
                </mxCell>
                <mxCell id="158" value="IF/ID" style="text;html=1;align=center;verticalAlign=middle;resizable=0;points=[];autosize=1;strokeColor=none;fillColor=none;fontSize=10;fontColor=#000000;rotation=-90;" parent="1" vertex="1">
                    <mxGeometry x="374" y="132" width="32" height="16" as="geometry"/>
                </mxCell>
                <mxCell id="159" value="ID/EX" style="text;html=1;align=center;verticalAlign=middle;resizable=0;points=[];autosize=1;strokeColor=none;fillColor=none;fontSize=10;fontColor=#000000;rotation=-90;" parent="1" vertex="1">
                    <mxGeometry x="622" y="132" width="36" height="16" as="geometry"/>
                </mxCell>
                <mxCell id="160" value="EX/MEM" style="text;html=1;align=center;verticalAlign=middle;resizable=0;points=[];autosize=1;strokeColor=none;fillColor=none;fontSize=10;fontColor=#000000;rotation=-90;" parent="1" vertex="1">
                    <mxGeometry x="835.5" y="138" width="49" height="16" as="geometry"/>
                </mxCell>
                <mxCell id="161" value="MEM/WB" style="text;html=1;align=center;verticalAlign=middle;resizable=0;points=[];autosize=1;strokeColor=none;fillColor=none;fontSize=10;fontColor=#000000;rotation=-90;" parent="1" vertex="1">
                    <mxGeometry x="1024" y="138" width="52" height="16" as="geometry"/>
                </mxCell>
                <mxCell id="162" value="R1#" style="text;html=1;align=center;verticalAlign=middle;resizable=0;points=[];autosize=1;strokeColor=none;fillColor=none;fontSize=10;fontColor=#000000;" parent="1" vertex="1">
                    <mxGeometry x="500" y="332" width="28" height="16" as="geometry"/>
                </mxCell>
                <mxCell id="163" value="R2#" style="text;html=1;align=center;verticalAlign=middle;resizable=0;points=[];autosize=1;strokeColor=none;fillColor=none;fontSize=10;fontColor=#000000;" parent="1" vertex="1">
                    <mxGeometry x="500" y="352" width="28" height="16" as="geometry"/>
                </mxCell>
                <mxCell id="164" value="W#" style="text;html=1;align=center;verticalAlign=middle;resizable=0;points=[];autosize=1;strokeColor=none;fillColor=none;fontSize=10;fontColor=#000000;" parent="1" vertex="1">
                    <mxGeometry x="500" y="372" width="25" height="16" as="geometry"/>
                </mxCell>
                <mxCell id="165" value="WD" style="text;html=1;align=center;verticalAlign=middle;resizable=0;points=[];autosize=1;strokeColor=none;fillColor=none;fontSize=10;fontColor=#000000;" parent="1" vertex="1">
                    <mxGeometry x="500" y="395" width="27" height="16" as="geometry"/>
                </mxCell>
                <mxCell id="166" value="R1" style="text;html=1;align=center;verticalAlign=middle;resizable=0;points=[];autosize=1;strokeColor=none;fillColor=none;fontSize=10;fontColor=#000000;" parent="1" vertex="1">
                    <mxGeometry x="567" y="332" width="23" height="16" as="geometry"/>
                </mxCell>
                <mxCell id="167" value="R2" style="text;html=1;align=center;verticalAlign=middle;resizable=0;points=[];autosize=1;strokeColor=none;fillColor=none;fontSize=10;fontColor=#000000;" parent="1" vertex="1">
                    <mxGeometry x="567" y="372" width="23" height="16" as="geometry"/>
                </mxCell>
                <mxCell id="170" value="" style="endArrow=classicThin;html=1;fontSize=10;fontColor=#000000;exitX=0.5;exitY=1;exitDx=0;exitDy=0;rounded=0;strokeColor=#000000;endFill=1;dashed=1;" parent="1" source="8" edge="1">
                    <mxGeometry width="50" height="50" relative="1" as="geometry">
                        <mxPoint x="480.5" y="535.5" as="sourcePoint"/>
                        <mxPoint x="531" y="499" as="targetPoint"/>
                        <Array as="points">
                            <mxPoint x="465" y="447"/>
                            <mxPoint x="531" y="447"/>
                        </Array>
                    </mxGeometry>
                </mxCell>
                <mxCell id="171" value="SigExt" style="text;html=1;align=center;verticalAlign=middle;resizable=0;points=[];autosize=1;strokeColor=none;fillColor=none;fontSize=10;fontColor=#000000;" parent="1" vertex="1">
                    <mxGeometry x="543" y="559" width="39" height="16" as="geometry"/>
                </mxCell>
                <mxCell id="172" value="31:26" style="text;html=1;align=center;verticalAlign=middle;resizable=0;points=[];autosize=1;strokeColor=none;fillColor=none;fontSize=10;fontColor=#000000;" parent="1" vertex="1">
                    <mxGeometry x="408" y="172" width="35" height="16" as="geometry"/>
                </mxCell>
                <mxCell id="173" value="5:0" style="text;html=1;align=center;verticalAlign=middle;resizable=0;points=[];autosize=1;strokeColor=none;fillColor=none;fontSize=10;fontColor=#000000;" parent="1" vertex="1">
                    <mxGeometry x="419" y="185" width="24" height="16" as="geometry"/>
                </mxCell>
                <mxCell id="174" value="25:21" style="text;html=1;align=center;verticalAlign=middle;resizable=0;points=[];autosize=1;strokeColor=none;fillColor=none;fontSize=10;fontColor=#000000;" parent="1" vertex="1">
                    <mxGeometry x="419" y="324" width="35" height="16" as="geometry"/>
                </mxCell>
                <mxCell id="175" value="20:16" style="text;html=1;align=center;verticalAlign=middle;resizable=0;points=[];autosize=1;strokeColor=none;fillColor=none;fontSize=10;fontColor=#000000;" parent="1" vertex="1">
                    <mxGeometry x="419" y="344" width="35" height="16" as="geometry"/>
                </mxCell>
                <mxCell id="176" value="20:16" style="text;html=1;align=center;verticalAlign=middle;resizable=0;points=[];autosize=1;strokeColor=none;fillColor=none;fontSize=10;fontColor=#000000;" parent="1" vertex="1">
                    <mxGeometry x="478" y="489" width="35" height="16" as="geometry"/>
                </mxCell>
                <mxCell id="177" value="15:11" style="text;html=1;align=center;verticalAlign=middle;resizable=0;points=[];autosize=1;strokeColor=none;fillColor=none;fontSize=10;fontColor=#000000;" parent="1" vertex="1">
                    <mxGeometry x="478" y="508" width="34" height="16" as="geometry"/>
                </mxCell>
                <mxCell id="178" value="rd" style="text;html=1;align=center;verticalAlign=middle;resizable=0;points=[];autosize=1;strokeColor=none;fillColor=none;fontSize=10;fontColor=#000000;" parent="1" vertex="1">
                    <mxGeometry x="486" y="524" width="19" height="16" as="geometry"/>
                </mxCell>
                <mxCell id="179" value="15:0" style="text;html=1;align=center;verticalAlign=middle;resizable=0;points=[];autosize=1;strokeColor=none;fillColor=none;fontSize=10;fontColor=#000000;" parent="1" vertex="1">
                    <mxGeometry x="482" y="552" width="29" height="16" as="geometry"/>
                </mxCell>
                <mxCell id="180" value="WriteReg#" style="text;html=1;align=center;verticalAlign=middle;resizable=0;points=[];autosize=1;strokeColor=none;fillColor=none;fontSize=10;fontColor=#000000;" parent="1" vertex="1">
                    <mxGeometry x="565" y="515" width="57" height="16" as="geometry"/>
                </mxCell>
                <mxCell id="181" value="rs" style="text;html=1;align=center;verticalAlign=middle;resizable=0;points=[];autosize=1;strokeColor=none;fillColor=none;fontSize=10;fontColor=#000000;" parent="1" vertex="1">
                    <mxGeometry x="607.5" y="324" width="18" height="16" as="geometry"/>
                </mxCell>
                <mxCell id="182" value="rt" style="text;html=1;align=center;verticalAlign=middle;resizable=0;points=[];autosize=1;strokeColor=none;fillColor=none;fontSize=10;fontColor=#000000;" parent="1" vertex="1">
                    <mxGeometry x="608.5" y="364" width="16" height="16" as="geometry"/>
                </mxCell>
                <mxCell id="183" value="&lt;font color=&quot;#4d4d4d&quot;&gt;RegDst&lt;/font&gt;" style="text;html=1;align=center;verticalAlign=middle;resizable=0;points=[];autosize=1;strokeColor=none;fillColor=none;fontSize=10;fontColor=#000000;" parent="1" vertex="1">
                    <mxGeometry x="463" y="237" width="43" height="16" as="geometry"/>
                </mxCell>
                <mxCell id="184" value="AluSrc" style="text;html=1;align=center;verticalAlign=middle;resizable=0;points=[];autosize=1;strokeColor=none;fillColor=none;fontSize=10;fontColor=#4D4D4D;" parent="1" vertex="1">
                    <mxGeometry x="551" y="185" width="39" height="16" as="geometry"/>
                </mxCell>
                <mxCell id="185" value="Branch" style="text;html=1;align=center;verticalAlign=middle;resizable=0;points=[];autosize=1;strokeColor=none;fillColor=none;fontSize=10;fontColor=#4D4D4D;" parent="1" vertex="1">
                    <mxGeometry x="549.5" y="172" width="42" height="16" as="geometry"/>
                </mxCell>
                <mxCell id="186" value="AluOp" style="text;html=1;align=center;verticalAlign=middle;resizable=0;points=[];autosize=1;strokeColor=none;fillColor=none;fontSize=10;fontColor=#4D4D4D;" parent="1" vertex="1">
                    <mxGeometry x="551.5" y="157" width="38" height="16" as="geometry"/>
                </mxCell>
                <mxCell id="187" value="MemWrite" style="text;html=1;align=center;verticalAlign=middle;resizable=0;points=[];autosize=1;strokeColor=none;fillColor=none;fontSize=10;fontColor=#4D4D4D;" parent="1" vertex="1">
                    <mxGeometry x="543" y="144" width="55" height="16" as="geometry"/>
                </mxCell>
                <mxCell id="189" value="RegWrite" style="text;html=1;align=center;verticalAlign=middle;resizable=0;points=[];autosize=1;strokeColor=none;fillColor=none;fontSize=10;fontColor=#4D4D4D;" parent="1" vertex="1">
                    <mxGeometry x="544.5" y="116" width="52" height="16" as="geometry"/>
                </mxCell>
                <mxCell id="190" value="MemToReg" style="text;html=1;align=center;verticalAlign=middle;resizable=0;points=[];autosize=1;strokeColor=none;fillColor=none;fontSize=10;fontColor=#4D4D4D;" parent="1" vertex="1">
                    <mxGeometry x="648" y="128" width="61" height="16" as="geometry"/>
                </mxCell>
                <mxCell id="191" value="AluSrc" style="text;html=1;align=center;verticalAlign=middle;resizable=0;points=[];autosize=1;strokeColor=none;fillColor=none;fontSize=10;fontColor=#4D4D4D;" parent="1" vertex="1">
                    <mxGeometry x="659" y="185" width="39" height="16" as="geometry"/>
                </mxCell>
                <mxCell id="192" value="Branch" style="text;html=1;align=center;verticalAlign=middle;resizable=0;points=[];autosize=1;strokeColor=none;fillColor=none;fontSize=10;fontColor=#4D4D4D;" parent="1" vertex="1">
                    <mxGeometry x="657.5" y="172" width="42" height="16" as="geometry"/>
                </mxCell>
                <mxCell id="193" value="AluOp" style="text;html=1;align=center;verticalAlign=middle;resizable=0;points=[];autosize=1;strokeColor=none;fillColor=none;fontSize=10;fontColor=#4D4D4D;" parent="1" vertex="1">
                    <mxGeometry x="659.5" y="157" width="38" height="16" as="geometry"/>
                </mxCell>
                <mxCell id="194" value="MemWrite" style="text;html=1;align=center;verticalAlign=middle;resizable=0;points=[];autosize=1;strokeColor=none;fillColor=none;fontSize=10;fontColor=#4D4D4D;" parent="1" vertex="1">
                    <mxGeometry x="651" y="144" width="55" height="16" as="geometry"/>
                </mxCell>
                <mxCell id="195" value="RegWrite" style="text;html=1;align=center;verticalAlign=middle;resizable=0;points=[];autosize=1;strokeColor=none;fillColor=none;fontSize=10;fontColor=#4D4D4D;" parent="1" vertex="1">
                    <mxGeometry x="652.5" y="116" width="52" height="16" as="geometry"/>
                </mxCell>
                <mxCell id="197" value="&lt;font color=&quot;#ffffff&quot;&gt;funct&lt;/font&gt;" style="text;html=1;align=center;verticalAlign=middle;resizable=0;points=[];autosize=1;strokeColor=none;fillColor=none;fontSize=10;fontColor=#000000;" parent="1" vertex="1">
                    <mxGeometry x="439.5" y="192" width="32" height="16" as="geometry"/>
                </mxCell>
                <mxCell id="200" value="ALU" style="text;html=1;align=center;verticalAlign=middle;resizable=0;points=[];autosize=1;strokeColor=none;fillColor=none;fontSize=10;fontColor=#000000;" parent="1" vertex="1">
                    <mxGeometry x="763" y="400" width="29" height="16" as="geometry"/>
                </mxCell>
                <mxCell id="201" value="&lt;font style=&quot;font-size: 8px&quot;&gt;SrcA&lt;/font&gt;" style="text;html=1;align=center;verticalAlign=middle;resizable=0;points=[];autosize=1;strokeColor=none;fillColor=none;fontSize=10;fontColor=#000000;" parent="1" vertex="1">
                    <mxGeometry x="765" y="326" width="27" height="17" as="geometry"/>
                </mxCell>
                <mxCell id="202" value="&lt;font style=&quot;font-size: 8px&quot;&gt;SrcB&lt;/font&gt;" style="text;html=1;align=center;verticalAlign=middle;resizable=0;points=[];autosize=1;strokeColor=none;fillColor=none;fontSize=10;fontColor=#000000;" parent="1" vertex="1">
                    <mxGeometry x="765" y="374" width="27" height="17" as="geometry"/>
                </mxCell>
                <mxCell id="203" value="Result" style="text;html=1;align=center;verticalAlign=middle;resizable=0;points=[];autosize=1;strokeColor=none;fillColor=none;fontSize=10;fontColor=#000000;" parent="1" vertex="1">
                    <mxGeometry x="808" y="359" width="38" height="16" as="geometry"/>
                </mxCell>
                <mxCell id="204" value="Zero" style="text;html=1;align=center;verticalAlign=middle;resizable=0;points=[];autosize=1;strokeColor=none;fillColor=none;fontSize=10;fontColor=#000000;" parent="1" vertex="1">
                    <mxGeometry x="819" y="330" width="31" height="16" as="geometry"/>
                </mxCell>
                <mxCell id="205" value="WriteData" style="text;html=1;align=center;verticalAlign=middle;resizable=0;points=[];autosize=1;strokeColor=none;fillColor=none;fontSize=10;fontColor=#000000;" parent="1" vertex="1">
                    <mxGeometry x="800" y="414" width="54" height="16" as="geometry"/>
                </mxCell>
                <mxCell id="206" value="WriteReg#" style="text;html=1;align=center;verticalAlign=middle;resizable=0;points=[];autosize=1;strokeColor=none;fillColor=none;fontSize=10;fontColor=#000000;" parent="1" vertex="1">
                    <mxGeometry x="763" y="516" width="57" height="16" as="geometry"/>
                </mxCell>
                <mxCell id="207" value="SigImm" style="text;html=1;align=center;verticalAlign=middle;resizable=0;points=[];autosize=1;strokeColor=none;fillColor=none;fontSize=10;fontColor=#000000;" parent="1" vertex="1">
                    <mxGeometry x="687.75" y="568" width="44" height="16" as="geometry"/>
                </mxCell>
                <mxCell id="208" value="&amp;lt;&amp;lt;2" style="text;html=1;align=center;verticalAlign=middle;resizable=0;points=[];autosize=1;strokeColor=none;fillColor=none;fontSize=10;fontColor=#000000;" parent="1" vertex="1">
                    <mxGeometry x="717" y="552" width="27" height="16" as="geometry"/>
                </mxCell>
                <mxCell id="210" value="+" style="text;html=1;align=center;verticalAlign=middle;resizable=0;points=[];autosize=1;strokeColor=none;fillColor=none;fontSize=10;fontColor=#000000;" parent="1" vertex="1">
                    <mxGeometry x="792" y="573" width="16" height="16" as="geometry"/>
                </mxCell>
                <mxCell id="211" value="BranchAddr" style="text;html=1;align=center;verticalAlign=middle;resizable=0;points=[];autosize=1;strokeColor=none;fillColor=none;fontSize=10;fontColor=#000000;" parent="1" vertex="1">
                    <mxGeometry x="768" y="620" width="63" height="16" as="geometry"/>
                </mxCell>
                <mxCell id="212" value="MemToReg" style="text;html=1;align=center;verticalAlign=middle;resizable=0;points=[];autosize=1;strokeColor=none;fillColor=none;fontSize=10;fontColor=#4D4D4D;" parent="1" vertex="1">
                    <mxGeometry x="867" y="130" width="61" height="16" as="geometry"/>
                </mxCell>
                <mxCell id="213" value="MemWrite" style="text;html=1;align=center;verticalAlign=middle;resizable=0;points=[];autosize=1;strokeColor=none;fillColor=none;fontSize=10;fontColor=#4D4D4D;" parent="1" vertex="1">
                    <mxGeometry x="870" y="146" width="55" height="16" as="geometry"/>
                </mxCell>
                <mxCell id="214" value="RegWrite" style="text;html=1;align=center;verticalAlign=middle;resizable=0;points=[];autosize=1;strokeColor=none;fillColor=none;fontSize=10;fontColor=#4D4D4D;" parent="1" vertex="1">
                    <mxGeometry x="870" y="116" width="52" height="16" as="geometry"/>
                </mxCell>
                <mxCell id="215" value="" style="shape=waypoint;sketch=0;size=6;pointerEvents=1;points=[];fillColor=none;resizable=0;rotatable=0;perimeter=centerPerimeter;snapToPoint=1;fontSize=10;fontColor=#000000;strokeColor=#000000;strokeWidth=0;" parent="1" vertex="1">
                    <mxGeometry x="870" y="340" width="40" height="40" as="geometry"/>
                </mxCell>
                <mxCell id="216" value="WE" style="text;html=1;align=center;verticalAlign=middle;resizable=0;points=[];autosize=1;strokeColor=none;fillColor=none;fontSize=10;fontColor=#000000;" parent="1" vertex="1">
                    <mxGeometry x="940.5" y="343" width="26" height="16" as="geometry"/>
                </mxCell>
                <mxCell id="218" value="WD" style="text;html=1;align=center;verticalAlign=middle;resizable=0;points=[];autosize=1;strokeColor=none;fillColor=none;fontSize=10;fontColor=#000000;" parent="1" vertex="1">
                    <mxGeometry x="925" y="424" width="27" height="16" as="geometry"/>
                </mxCell>
                <mxCell id="219" value="RD" style="text;html=1;align=center;verticalAlign=middle;resizable=0;points=[];autosize=1;strokeColor=none;fillColor=none;fontSize=10;fontColor=#000000;" parent="1" vertex="1">
                    <mxGeometry x="983" y="352" width="24" height="16" as="geometry"/>
                </mxCell>
                <mxCell id="221" value="WriteReg#" style="text;html=1;align=center;verticalAlign=middle;resizable=0;points=[];autosize=1;strokeColor=none;fillColor=none;fontSize=10;fontColor=#000000;" parent="1" vertex="1">
                    <mxGeometry x="930" y="517" width="57" height="16" as="geometry"/>
                </mxCell>
                <mxCell id="222" value="MemToReg" style="text;html=1;align=center;verticalAlign=middle;resizable=0;points=[];autosize=1;strokeColor=none;fillColor=none;fontSize=10;fontColor=#4D4D4D;" parent="1" vertex="1">
                    <mxGeometry x="1055" y="132" width="61" height="16" as="geometry"/>
                </mxCell>
                <mxCell id="223" value="RegWrite" style="text;html=1;align=center;verticalAlign=middle;resizable=0;points=[];autosize=1;strokeColor=none;fillColor=none;fontSize=10;fontColor=#4D4D4D;" parent="1" vertex="1">
                    <mxGeometry x="1055" y="116" width="52" height="16" as="geometry"/>
                </mxCell>
                <mxCell id="225" value="&lt;font color=&quot;#000000&quot; style=&quot;font-size: 10px&quot;&gt;0&lt;/font&gt;" style="text;html=1;align=center;verticalAlign=middle;resizable=0;points=[];autosize=1;strokeColor=none;fillColor=none;" parent="1" vertex="1">
                    <mxGeometry x="1077.5" y="323" width="16" height="19" as="geometry"/>
                </mxCell>
                <mxCell id="226" value="&lt;font style=&quot;font-size: 10px&quot;&gt;1&lt;/font&gt;" style="text;html=1;align=center;verticalAlign=middle;resizable=0;points=[];autosize=1;strokeColor=none;fillColor=none;fontSize=8;fontColor=#000000;" parent="1" vertex="1">
                    <mxGeometry x="1077.5" y="351" width="16" height="15" as="geometry"/>
                </mxCell>
                <mxCell id="227" value="WriteReg#" style="text;html=1;align=center;verticalAlign=middle;resizable=0;points=[];autosize=1;strokeColor=none;fillColor=none;fontSize=10;fontColor=#000000;rotation=270;" parent="1" vertex="1">
                    <mxGeometry x="1050" y="540" width="57" height="16" as="geometry"/>
                </mxCell>
                <mxCell id="228" value="WriteBackData" style="text;html=1;align=center;verticalAlign=middle;resizable=0;points=[];autosize=1;strokeColor=none;fillColor=none;fontSize=10;fontColor=#000000;rotation=-90;" parent="1" vertex="1">
                    <mxGeometry x="1072" y="430" width="77" height="16" as="geometry"/>
                </mxCell>
                <mxCell id="229" value="&lt;font color=&quot;#000000&quot;&gt;WE&lt;/font&gt;" style="text;html=1;align=center;verticalAlign=middle;resizable=0;points=[];autosize=1;strokeColor=none;fillColor=none;fontSize=10;fontColor=#FFFFFF;" parent="1" vertex="1">
                    <mxGeometry x="530.5" y="321" width="26" height="16" as="geometry"/>
                </mxCell>
                <mxCell id="230" value="" style="endArrow=classicThin;html=1;rounded=0;fontSize=10;fontColor=#000000;strokeColor=#000000;entryX=-0.004;entryY=0.721;entryDx=0;entryDy=0;entryPerimeter=0;endFill=1;" parent="1" edge="1">
                    <mxGeometry width="50" height="50" relative="1" as="geometry">
                        <mxPoint x="421.08" y="487" as="sourcePoint"/>
                        <mxPoint x="630.0000000000001" y="487.2900000000002" as="targetPoint"/>
                    </mxGeometry>
                </mxCell>
                <mxCell id="234" value="25:0" style="text;html=1;align=center;verticalAlign=middle;resizable=0;points=[];autosize=1;strokeColor=none;fillColor=none;fontSize=10;fontColor=#000000;" parent="1" vertex="1">
                    <mxGeometry x="482.08" y="473" width="29" height="16" as="geometry"/>
                </mxCell>
                <mxCell id="235" value="" style="endArrow=none;html=1;rounded=0;strokeColor=#000000;" parent="1" edge="1">
                    <mxGeometry width="50" height="50" relative="1" as="geometry">
                        <mxPoint x="782" y="457" as="sourcePoint"/>
                        <mxPoint x="782" y="437" as="targetPoint"/>
                        <Array as="points">
                            <mxPoint x="792" y="467"/>
                            <mxPoint x="782" y="477"/>
                            <mxPoint x="782" y="497"/>
                            <mxPoint x="812" y="477"/>
                            <mxPoint x="812" y="457"/>
                        </Array>
                    </mxGeometry>
                </mxCell>
                <mxCell id="236" value="" style="endArrow=none;html=1;rounded=0;strokeColor=#000000;" parent="1" edge="1">
                    <mxGeometry width="50" height="50" relative="1" as="geometry">
                        <mxPoint x="782.31" y="457" as="sourcePoint"/>
                        <mxPoint x="782.31" y="437" as="targetPoint"/>
                    </mxGeometry>
                </mxCell>
                <mxCell id="237" value="" style="endArrow=classicThin;html=1;rounded=0;fontSize=10;fontColor=#000000;strokeColor=#000000;endFill=1;" parent="1" source="239" edge="1">
                    <mxGeometry width="50" height="50" relative="1" as="geometry">
                        <mxPoint x="733" y="535.5" as="sourcePoint"/>
                        <mxPoint x="782" y="447" as="targetPoint"/>
                        <Array as="points">
                            <mxPoint x="660" y="447"/>
                        </Array>
                    </mxGeometry>
                </mxCell>
                <mxCell id="239" value="" style="shape=waypoint;sketch=0;size=6;pointerEvents=1;points=[];fillColor=none;resizable=0;rotatable=0;perimeter=centerPerimeter;snapToPoint=1;fontSize=10;fontColor=#000000;strokeColor=#000000;strokeWidth=0;" parent="1" vertex="1">
                    <mxGeometry x="640" y="580" width="40" height="40" as="geometry"/>
                </mxCell>
                <mxCell id="240" value="" style="endArrow=none;html=1;rounded=0;fontSize=10;fontColor=#000000;strokeColor=#000000;endFill=1;" parent="1" target="239" edge="1">
                    <mxGeometry width="50" height="50" relative="1" as="geometry">
                        <mxPoint x="659" y="600" as="sourcePoint"/>
                        <mxPoint x="783" y="446" as="targetPoint"/>
                        <Array as="points"/>
                    </mxGeometry>
                </mxCell>
                <mxCell id="241" value="Con" style="text;html=1;align=center;verticalAlign=middle;resizable=0;points=[];autosize=1;strokeColor=none;fillColor=none;fontSize=10;fontColor=#000000;" parent="1" vertex="1">
                    <mxGeometry x="788" y="459" width="28" height="16" as="geometry"/>
                </mxCell>
                <mxCell id="242" value="" style="endArrow=classicThin;html=1;rounded=0;fontSize=10;fontColor=#000000;strokeColor=#000000;endFill=1;" parent="1" edge="1">
                    <mxGeometry width="50" height="50" relative="1" as="geometry">
                        <mxPoint x="812.25" y="464" as="sourcePoint"/>
                        <mxPoint x="179.25" y="368" as="targetPoint"/>
                        <Array as="points">
                            <mxPoint x="830" y="464"/>
                            <mxPoint x="830" y="668"/>
                            <mxPoint x="120" y="668"/>
                            <mxPoint x="120" y="368"/>
                        </Array>
                    </mxGeometry>
                </mxCell>
                <mxCell id="243" value="2" style="text;html=1;align=center;verticalAlign=middle;resizable=0;points=[];autosize=1;strokeColor=none;fillColor=none;fontSize=10;fontColor=#000000;" parent="1" vertex="1">
                    <mxGeometry x="174" y="359" width="20" height="20" as="geometry"/>
                </mxCell>
                <mxCell id="246" value="" style="endArrow=classicThin;html=1;rounded=0;strokeColor=#000000;entryX=0;entryY=0.163;entryDx=0;entryDy=0;entryPerimeter=0;endFill=1;dashed=1;" parent="1" edge="1">
                    <mxGeometry width="50" height="50" relative="1" as="geometry">
                        <mxPoint x="490" y="213.12999999999988" as="sourcePoint"/>
                        <mxPoint x="630" y="213" as="targetPoint"/>
                    </mxGeometry>
                </mxCell>
                <mxCell id="247" value="&lt;font color=&quot;#4d4d4d&quot;&gt;Jump&lt;/font&gt;" style="text;html=1;align=center;verticalAlign=middle;resizable=0;points=[];autosize=1;strokeColor=none;fillColor=none;fontSize=10;fontColor=#000000;" parent="1" vertex="1">
                    <mxGeometry x="553.5" y="199" width="34" height="16" as="geometry"/>
                </mxCell>
                <mxCell id="248" value="" style="endArrow=classicThin;html=1;rounded=0;strokeColor=#000000;endFill=1;dashed=1;" parent="1" edge="1">
                    <mxGeometry width="50" height="50" relative="1" as="geometry">
                        <mxPoint x="650" y="213.12999999999988" as="sourcePoint"/>
                        <mxPoint x="196" y="328" as="targetPoint"/>
                        <Array as="points">
                            <mxPoint x="803" y="213"/>
                            <mxPoint x="803" y="100"/>
                            <mxPoint x="196" y="100"/>
                        </Array>
                    </mxGeometry>
                </mxCell>
                <mxCell id="249" value="&lt;font color=&quot;#4d4d4d&quot;&gt;Jump&lt;/font&gt;" style="text;html=1;align=center;verticalAlign=middle;resizable=0;points=[];autosize=1;strokeColor=none;fillColor=none;fontSize=10;fontColor=#000000;" parent="1" vertex="1">
                    <mxGeometry x="662" y="199" width="34" height="16" as="geometry"/>
                </mxCell>
                <mxCell id="250" value="&lt;font color=&quot;#ffffff&quot;&gt;Forward&lt;br&gt;Unit&lt;/font&gt;" style="rounded=1;whiteSpace=wrap;html=1;fontSize=10;fontColor=#4D4D4D;strokeColor=#000000;strokeWidth=0;fillColor=default;" parent="1" vertex="1">
                    <mxGeometry x="724" y="690" width="74.5" height="60" as="geometry"/>
                </mxCell>
                <mxCell id="254" value="" style="endArrow=none;html=1;rounded=0;fontSize=10;fontColor=#FFFFFF;strokeColor=#000000;entryX=0;entryY=0.331;entryDx=0;entryDy=0;entryPerimeter=0;" parent="1" target="14" edge="1">
                    <mxGeometry width="50" height="50" relative="1" as="geometry">
                        <mxPoint x="421.5" y="282" as="sourcePoint"/>
                        <mxPoint x="620" y="277" as="targetPoint"/>
                    </mxGeometry>
                </mxCell>
                <mxCell id="252" value="" style="shape=waypoint;sketch=0;size=6;pointerEvents=1;points=[];fillColor=none;resizable=0;rotatable=0;perimeter=centerPerimeter;snapToPoint=1;fontSize=10;fontColor=#FFFFFF;strokeColor=#000000;strokeWidth=0;" parent="1" vertex="1">
                    <mxGeometry x="400" y="262" width="40" height="40" as="geometry"/>
                </mxCell>
                <mxCell id="255" value="" style="endArrow=none;html=1;rounded=0;strokeColor=#000000;entryDx=0;entryDy=0;" parent="1" source="49" target="252" edge="1">
                    <mxGeometry width="50" height="50" relative="1" as="geometry">
                        <mxPoint x="420" y="340" as="sourcePoint"/>
                        <mxPoint x="420" y="200" as="targetPoint"/>
                        <Array as="points"/>
                    </mxGeometry>
                </mxCell>
                <mxCell id="258" value="" style="endArrow=none;html=1;rounded=0;fontSize=10;fontColor=#FFFFFF;strokeColor=#000000;entryX=-0.05;entryY=0.33;entryDx=0;entryDy=0;entryPerimeter=0;" parent="1" target="25" edge="1">
                    <mxGeometry width="50" height="50" relative="1" as="geometry">
                        <mxPoint x="651" y="281.74" as="sourcePoint"/>
                        <mxPoint x="836" y="282" as="targetPoint"/>
                    </mxGeometry>
                </mxCell>
                <mxCell id="259" value="" style="endArrow=classicThin;html=1;rounded=0;fontSize=10;fontColor=#FFFFFF;strokeColor=#000000;entryX=0;entryY=0.5;entryDx=0;entryDy=0;endFill=1;startArrow=none;" parent="1" source="302" target="250" edge="1">
                    <mxGeometry width="50" height="50" relative="1" as="geometry">
                        <mxPoint x="672" y="320" as="sourcePoint"/>
                        <mxPoint x="333" y="522" as="targetPoint"/>
                        <Array as="points">
                            <mxPoint x="671" y="720"/>
                        </Array>
                    </mxGeometry>
                </mxCell>
                <mxCell id="261" value="" style="shape=waypoint;sketch=0;size=6;pointerEvents=1;points=[];fillColor=none;resizable=0;rotatable=0;perimeter=centerPerimeter;snapToPoint=1;fontSize=10;fontColor=#FFFFFF;strokeColor=#000000;strokeWidth=0;" parent="1" vertex="1">
                    <mxGeometry x="651" y="262" width="40" height="40" as="geometry"/>
                </mxCell>
                <mxCell id="262" value="" style="endArrow=classicThin;html=1;rounded=0;fontSize=10;fontColor=#FFFFFF;strokeColor=#000000;entryX=1;entryY=0.25;entryDx=0;entryDy=0;endFill=1;" parent="1" target="250" edge="1">
                    <mxGeometry width="50" height="50" relative="1" as="geometry">
                        <mxPoint x="880" y="282" as="sourcePoint"/>
                        <mxPoint x="921" y="233" as="targetPoint"/>
                        <Array as="points">
                            <mxPoint x="880" y="705"/>
                        </Array>
                    </mxGeometry>
                </mxCell>
                <mxCell id="263" value="" style="endArrow=none;html=1;rounded=0;fontSize=10;fontColor=#FFFFFF;strokeColor=#000000;entryX=-0.006;entryY=0.33;entryDx=0;entryDy=0;entryPerimeter=0;exitX=1.013;exitY=0.331;exitDx=0;exitDy=0;exitPerimeter=0;" parent="1" source="25" target="27" edge="1">
                    <mxGeometry width="50" height="50" relative="1" as="geometry">
                        <mxPoint x="880" y="282" as="sourcePoint"/>
                        <mxPoint x="1025" y="282" as="targetPoint"/>
                    </mxGeometry>
                </mxCell>
                <mxCell id="264" value="" style="shape=waypoint;sketch=0;size=6;pointerEvents=1;points=[];fillColor=none;resizable=0;rotatable=0;perimeter=centerPerimeter;snapToPoint=1;fontSize=10;fontColor=#FFFFFF;strokeColor=#000000;strokeWidth=0;" parent="1" vertex="1">
                    <mxGeometry x="860" y="262" width="40" height="40" as="geometry"/>
                </mxCell>
                <mxCell id="265" value="" style="endArrow=classicThin;html=1;rounded=0;fontSize=10;fontColor=#FFFFFF;strokeColor=#000000;entryX=1;entryY=0.75;entryDx=0;entryDy=0;endFill=1;" parent="1" target="250" edge="1">
                    <mxGeometry width="50" height="50" relative="1" as="geometry">
                        <mxPoint x="1060.5" y="283" as="sourcePoint"/>
                        <mxPoint x="1110.5" y="233" as="targetPoint"/>
                        <Array as="points">
                            <mxPoint x="1135" y="283"/>
                            <mxPoint x="1135" y="735"/>
                        </Array>
                    </mxGeometry>
                </mxCell>
                <mxCell id="270" value="" style="group" parent="1" vertex="1" connectable="0">
                    <mxGeometry x="720" y="359" width="20.5" height="51" as="geometry"/>
                </mxCell>
                <mxCell id="294" value="3" style="text;html=1;align=center;verticalAlign=middle;resizable=0;points=[];autosize=1;strokeColor=none;fillColor=none;fontSize=8;fontColor=#000000;" parent="270" vertex="1">
                    <mxGeometry x="-4" y="31" width="20" height="20" as="geometry"/>
                </mxCell>
                <mxCell id="267" value="" style="endArrow=none;html=1;strokeColor=#000000;rounded=0;" parent="270" edge="1">
                    <mxGeometry width="50" height="50" relative="1" as="geometry">
                        <mxPoint y="51" as="sourcePoint"/>
                        <mxPoint as="targetPoint"/>
                        <Array as="points">
                            <mxPoint x="20.5" y="42.5"/>
                            <mxPoint x="20" y="8.5"/>
                        </Array>
                    </mxGeometry>
                </mxCell>
                <mxCell id="269" value="" style="endArrow=none;html=1;rounded=0;fontSize=10;fontColor=#FFFFFF;strokeColor=#000000;" parent="270" edge="1">
                    <mxGeometry width="50" height="50" relative="1" as="geometry">
                        <mxPoint y="51" as="sourcePoint"/>
                        <mxPoint as="targetPoint"/>
                    </mxGeometry>
                </mxCell>
                <mxCell id="293" value="1" style="text;html=1;align=center;verticalAlign=middle;resizable=0;points=[];autosize=1;strokeColor=none;fillColor=none;fontSize=8;fontColor=#000000;" parent="270" vertex="1">
                    <mxGeometry x="-1.25" y="14" width="14" height="14" as="geometry"/>
                </mxCell>
                <mxCell id="291" value="0" style="text;html=1;align=center;verticalAlign=middle;resizable=0;points=[];autosize=1;strokeColor=none;fillColor=none;fontSize=8;fontColor=#000000;" parent="270" vertex="1">
                    <mxGeometry x="-1" y="4" width="14" height="14" as="geometry"/>
                </mxCell>
                <mxCell id="292" value="2" style="text;html=1;align=center;verticalAlign=middle;resizable=0;points=[];autosize=1;strokeColor=none;fillColor=none;fontSize=8;fontColor=#000000;" parent="270" vertex="1">
                    <mxGeometry x="-1.25" y="24" width="14" height="14" as="geometry"/>
                </mxCell>
                <mxCell id="271" value="" style="endArrow=classicThin;html=1;rounded=0;fontSize=10;fontColor=#FFFFFF;strokeColor=#000000;exitX=0.975;exitY=0.449;exitDx=0;exitDy=0;exitPerimeter=0;endFill=1;" parent="1" source="14" edge="1">
                    <mxGeometry width="50" height="50" relative="1" as="geometry">
                        <mxPoint x="649.5" y="368" as="sourcePoint"/>
                        <mxPoint x="720" y="320" as="targetPoint"/>
                        <Array as="points">
                            <mxPoint x="660" y="340"/>
                            <mxPoint x="660" y="320"/>
                        </Array>
                    </mxGeometry>
                </mxCell>
                <mxCell id="272" value="" style="endArrow=classicThin;html=1;rounded=0;fontSize=10;fontColor=#FFFFFF;strokeColor=#000000;endFill=1;" parent="1" edge="1">
                    <mxGeometry width="50" height="50" relative="1" as="geometry">
                        <mxPoint x="740" y="333" as="sourcePoint"/>
                        <mxPoint x="768" y="333" as="targetPoint"/>
                    </mxGeometry>
                </mxCell>
                <mxCell id="273" value="" style="endArrow=classicThin;html=1;rounded=0;fontSize=10;fontColor=#FFFFFF;strokeColor=#000000;endFill=1;" parent="1" edge="1">
                    <mxGeometry width="50" height="50" relative="1" as="geometry">
                        <mxPoint x="890.5" y="360" as="sourcePoint"/>
                        <mxPoint x="720" y="330" as="targetPoint"/>
                        <Array as="points">
                            <mxPoint x="891" y="680"/>
                            <mxPoint x="690" y="680"/>
                            <mxPoint x="690" y="330"/>
                        </Array>
                    </mxGeometry>
                </mxCell>
                <mxCell id="277" value="" style="group" parent="1" vertex="1" connectable="0">
                    <mxGeometry x="720" y="310" width="20" height="40" as="geometry"/>
                </mxCell>
                <mxCell id="288" value="0" style="text;html=1;align=center;verticalAlign=middle;resizable=0;points=[];autosize=1;strokeColor=none;fillColor=none;fontSize=8;fontColor=#000000;" parent="277" vertex="1">
                    <mxGeometry y="3.5" width="14" height="14" as="geometry"/>
                </mxCell>
                <mxCell id="275" value="" style="endArrow=none;html=1;strokeColor=#000000;rounded=0;" parent="277" edge="1">
                    <mxGeometry width="50" height="50" relative="1" as="geometry">
                        <mxPoint y="40" as="sourcePoint"/>
                        <mxPoint x="0.24691358024691357" as="targetPoint"/>
                        <Array as="points">
                            <mxPoint x="19.753086419753085" y="31.666666666666664"/>
                            <mxPoint x="20" y="8.333333333333332"/>
                        </Array>
                    </mxGeometry>
                </mxCell>
                <mxCell id="276" value="" style="endArrow=none;html=1;rounded=0;fontSize=10;fontColor=#FFFFFF;strokeColor=#000000;" parent="277" edge="1">
                    <mxGeometry width="50" height="50" relative="1" as="geometry">
                        <mxPoint y="40" as="sourcePoint"/>
                        <mxPoint x="0.24691358024691357" as="targetPoint"/>
                    </mxGeometry>
                </mxCell>
                <mxCell id="290" value="2" style="text;html=1;align=center;verticalAlign=middle;resizable=0;points=[];autosize=1;strokeColor=none;fillColor=none;fontSize=8;fontColor=#000000;" parent="277" vertex="1">
                    <mxGeometry y="22.5" width="14" height="14" as="geometry"/>
                </mxCell>
                <mxCell id="289" value="1" style="text;html=1;align=center;verticalAlign=middle;resizable=0;points=[];autosize=1;strokeColor=none;fillColor=none;fontSize=8;fontColor=#000000;" parent="277" vertex="1">
                    <mxGeometry y="13.5" width="14" height="14" as="geometry"/>
                </mxCell>
                <mxCell id="279" value="" style="endArrow=classicThin;html=1;rounded=0;fontSize=10;fontColor=#FFFFFF;strokeColor=#000000;endFill=1;" parent="1" edge="1">
                    <mxGeometry width="50" height="50" relative="1" as="geometry">
                        <mxPoint x="700" y="640" as="sourcePoint"/>
                        <mxPoint x="720" y="340" as="targetPoint"/>
                        <Array as="points">
                            <mxPoint x="700" y="340"/>
                        </Array>
                    </mxGeometry>
                </mxCell>
                <mxCell id="280" value="" style="shape=waypoint;sketch=0;size=6;pointerEvents=1;points=[];fillColor=none;resizable=0;rotatable=0;perimeter=centerPerimeter;snapToPoint=1;fontSize=10;fontColor=#FFFFFF;strokeColor=#000000;strokeWidth=0;" parent="1" vertex="1">
                    <mxGeometry x="680" y="620" width="40" height="40" as="geometry"/>
                </mxCell>
                <mxCell id="281" value="" style="endArrow=classicThin;html=1;rounded=0;fontSize=10;fontColor=#FFFFFF;strokeColor=#000000;endFill=1;" parent="1" edge="1">
                    <mxGeometry width="50" height="50" relative="1" as="geometry">
                        <mxPoint x="700" y="389.94" as="sourcePoint"/>
                        <mxPoint x="720" y="389.94" as="targetPoint"/>
                    </mxGeometry>
                </mxCell>
                <mxCell id="282" value="" style="endArrow=classicThin;html=1;rounded=0;fontSize=10;fontColor=#FFFFFF;strokeColor=#000000;endFill=1;" parent="1" edge="1">
                    <mxGeometry width="50" height="50" relative="1" as="geometry">
                        <mxPoint x="690" y="400" as="sourcePoint"/>
                        <mxPoint x="719.5" y="399.9399999999999" as="targetPoint"/>
                    </mxGeometry>
                </mxCell>
                <mxCell id="296" value="" style="endArrow=classicThin;html=1;rounded=0;fontSize=8;fontColor=#000000;strokeColor=#000000;endFill=1;dashed=1;" parent="1" edge="1">
                    <mxGeometry width="50" height="50" relative="1" as="geometry">
                        <mxPoint x="752" y="690" as="sourcePoint"/>
                        <mxPoint x="732" y="405" as="targetPoint"/>
                        <Array as="points">
                            <mxPoint x="752" y="690"/>
                            <mxPoint x="752" y="465"/>
                            <mxPoint x="732" y="465"/>
                        </Array>
                    </mxGeometry>
                </mxCell>
                <mxCell id="299" value="" style="endArrow=classicThin;html=1;rounded=0;fontSize=8;fontColor=#000000;strokeColor=#000000;endFill=1;dashed=1;exitX=0.5;exitY=0;exitDx=0;exitDy=0;" parent="1" source="250" edge="1">
                    <mxGeometry width="50" height="50" relative="1" as="geometry">
                        <mxPoint x="761" y="466" as="sourcePoint"/>
                        <mxPoint x="732" y="315" as="targetPoint"/>
                        <Array as="points">
                            <mxPoint x="761" y="298"/>
                            <mxPoint x="732" y="298"/>
                        </Array>
                    </mxGeometry>
                </mxCell>
                <mxCell id="300" value="&lt;font color=&quot;#ffffff&quot;&gt;Hazard&lt;br&gt;Unit&lt;/font&gt;" style="rounded=1;whiteSpace=wrap;html=1;fontSize=10;fontColor=#4D4D4D;strokeColor=#000000;strokeWidth=0;fillColor=default;" parent="1" vertex="1">
                    <mxGeometry x="443" y="690" width="74.5" height="60" as="geometry"/>
                </mxCell>
                <mxCell id="301" value="" style="endArrow=classicThin;html=1;rounded=0;fontSize=8;fontColor=#000000;strokeColor=#000000;entryX=1;entryY=0.5;entryDx=0;entryDy=0;endFill=1;" parent="1" target="300" edge="1">
                    <mxGeometry width="50" height="50" relative="1" as="geometry">
                        <mxPoint x="671" y="720" as="sourcePoint"/>
                        <mxPoint x="587.5" y="709" as="targetPoint"/>
                    </mxGeometry>
                </mxCell>
                <mxCell id="302" value="" style="shape=waypoint;sketch=0;size=6;pointerEvents=1;points=[];fillColor=none;resizable=0;rotatable=0;perimeter=centerPerimeter;snapToPoint=1;fontSize=8;fontColor=#000000;strokeColor=#000000;strokeWidth=0;" parent="1" vertex="1">
                    <mxGeometry x="651" y="700" width="40" height="40" as="geometry"/>
                </mxCell>
                <mxCell id="303" value="" style="endArrow=none;html=1;rounded=0;fontSize=10;fontColor=#FFFFFF;strokeColor=#000000;entryDx=0;entryDy=0;endFill=1;" parent="1" source="261" target="302" edge="1">
                    <mxGeometry width="50" height="50" relative="1" as="geometry">
                        <mxPoint x="671" y="282" as="sourcePoint"/>
                        <mxPoint x="724" y="720" as="targetPoint"/>
                        <Array as="points"/>
                    </mxGeometry>
                </mxCell>
                <mxCell id="304" value="" style="endArrow=classicThin;html=1;rounded=0;fontSize=8;fontColor=#000000;strokeColor=#000000;startArrow=none;endFill=1;" parent="1" source="305" edge="1">
                    <mxGeometry width="50" height="50" relative="1" as="geometry">
                        <mxPoint x="420" y="566" as="sourcePoint"/>
                        <mxPoint x="443" y="720" as="targetPoint"/>
                        <Array as="points">
                            <mxPoint x="420" y="720"/>
                        </Array>
                    </mxGeometry>
                </mxCell>
                <mxCell id="307" value="" style="endArrow=none;html=1;rounded=0;fontSize=8;fontColor=#000000;strokeColor=#000000;" parent="1" target="305" edge="1">
                    <mxGeometry width="50" height="50" relative="1" as="geometry">
                        <mxPoint x="420" y="566" as="sourcePoint"/>
                        <mxPoint x="443" y="720" as="targetPoint"/>
                        <Array as="points"/>
                    </mxGeometry>
                </mxCell>
                <mxCell id="305" value="" style="shape=waypoint;sketch=0;size=6;pointerEvents=1;points=[];fillColor=none;resizable=0;rotatable=0;perimeter=centerPerimeter;snapToPoint=1;fontSize=8;fontColor=#000000;strokeColor=#000000;strokeWidth=0;" parent="1" vertex="1">
                    <mxGeometry x="400" y="549" width="40" height="40" as="geometry"/>
                </mxCell>
                <mxCell id="309" value="&lt;font style=&quot;font-size: 10px&quot;&gt;31:0&lt;/font&gt;" style="text;html=1;align=center;verticalAlign=middle;resizable=0;points=[];autosize=1;strokeColor=none;fillColor=none;fontSize=8;fontColor=#000000;" parent="1" vertex="1">
                    <mxGeometry x="411" y="722" width="29" height="15" as="geometry"/>
                </mxCell>
                <mxCell id="310" value="&lt;font style=&quot;font-size: 10px&quot;&gt;31:0&lt;/font&gt;" style="text;html=1;align=center;verticalAlign=middle;resizable=0;points=[];autosize=1;strokeColor=none;fillColor=none;fontSize=8;fontColor=#000000;" parent="1" vertex="1">
                    <mxGeometry x="422" y="267" width="29" height="15" as="geometry"/>
                </mxCell>
                <mxCell id="311" value="" style="endArrow=classicThin;html=1;rounded=0;fontSize=10;fontColor=#000000;strokeColor=#000000;exitX=0;exitY=0.25;exitDx=0;exitDy=0;entryX=0.038;entryY=0.951;entryDx=0;entryDy=0;entryPerimeter=0;dashed=1;endFill=1;" parent="1" source="300" target="7" edge="1">
                    <mxGeometry width="50" height="50" relative="1" as="geometry">
                        <mxPoint x="301" y="740" as="sourcePoint"/>
                        <mxPoint x="351" y="690" as="targetPoint"/>
                        <Array as="points">
                            <mxPoint x="305" y="705"/>
                            <mxPoint x="305" y="586"/>
                        </Array>
                    </mxGeometry>
                </mxCell>
                <mxCell id="312" value="" style="endArrow=classicThin;html=1;rounded=0;dashed=1;fontSize=10;fontColor=#000000;strokeColor=#000000;exitX=1;exitY=0.25;exitDx=0;exitDy=0;entryX=0;entryY=0.955;entryDx=0;entryDy=0;entryPerimeter=0;endFill=1;" parent="1" source="300" target="14" edge="1">
                    <mxGeometry width="50" height="50" relative="1" as="geometry">
                        <mxPoint x="622" y="503" as="sourcePoint"/>
                        <mxPoint x="672" y="453" as="targetPoint"/>
                        <Array as="points">
                            <mxPoint x="585" y="705"/>
                            <mxPoint x="585" y="588"/>
                        </Array>
                    </mxGeometry>
                </mxCell>
                <mxCell id="313" value="stall" style="text;html=1;align=center;verticalAlign=middle;resizable=0;points=[];autosize=1;strokeColor=none;fillColor=none;fontSize=10;fontColor=#000000;" parent="1" vertex="1">
                    <mxGeometry x="522" y="687" width="28" height="16" as="geometry"/>
                </mxCell>
                <mxCell id="314" value="stall" style="text;html=1;align=center;verticalAlign=middle;resizable=0;points=[];autosize=1;strokeColor=none;fillColor=none;fontSize=10;fontColor=#000000;" parent="1" vertex="1">
                    <mxGeometry x="311" y="687" width="28" height="16" as="geometry"/>
                </mxCell>
                <mxCell id="315" value="" style="endArrow=classic;html=1;rounded=0;dashed=1;fontSize=10;fontColor=#000000;strokeColor=#000000;" parent="1" edge="1">
                    <mxGeometry width="50" height="50" relative="1" as="geometry">
                        <mxPoint x="304" y="706" as="sourcePoint"/>
                        <mxPoint x="230" y="320" as="targetPoint"/>
                        <Array as="points">
                            <mxPoint x="208" y="706"/>
                            <mxPoint x="208" y="300"/>
                            <mxPoint x="230" y="300"/>
                        </Array>
                    </mxGeometry>
                </mxCell>
                <mxCell id="316" value="" style="shape=waypoint;sketch=0;size=6;pointerEvents=1;points=[];fillColor=none;resizable=0;rotatable=0;perimeter=centerPerimeter;snapToPoint=1;fontSize=10;fontColor=#000000;strokeColor=#000000;strokeWidth=0;" parent="1" vertex="1">
                    <mxGeometry x="284.5" y="685" width="40" height="40" as="geometry"/>
                </mxCell>
                <mxCell id="317" value="" style="shape=waypoint;sketch=0;size=6;pointerEvents=1;points=[];fillColor=none;resizable=0;rotatable=0;perimeter=centerPerimeter;snapToPoint=1;strokeWidth=0;strokeColor=#000000;" parent="1" vertex="1">
                    <mxGeometry x="671" y="380" width="40" height="40" as="geometry"/>
                </mxCell>
                <mxCell id="319" value="" style="group" parent="1" vertex="1" connectable="0">
                    <mxGeometry x="720" y="550" width="30" height="20" as="geometry"/>
                </mxCell>
                <mxCell id="21" value="" style="endArrow=none;html=1;rounded=0;strokeColor=#000000;" parent="319" edge="1">
                    <mxGeometry width="50" height="50" relative="1" as="geometry">
                        <mxPoint x="20" as="sourcePoint"/>
                        <mxPoint x="-10" as="targetPoint"/>
                        <Array as="points">
                            <mxPoint x="30" y="20"/>
                            <mxPoint y="20"/>
                        </Array>
                    </mxGeometry>
                </mxCell>
                <mxCell id="22" value="" style="endArrow=none;html=1;rounded=0;strokeColor=#000000;" parent="319" edge="1">
                    <mxGeometry width="50" height="50" relative="1" as="geometry">
                        <mxPoint x="-10" as="sourcePoint"/>
                        <mxPoint x="20" as="targetPoint"/>
                        <Array as="points">
                            <mxPoint/>
                        </Array>
                    </mxGeometry>
                </mxCell>
                <mxCell id="320" value="" style="group" parent="1" vertex="1" connectable="0">
                    <mxGeometry x="715.5" y="477" width="30" height="20" as="geometry"/>
                </mxCell>
                <mxCell id="321" value="" style="endArrow=none;html=1;rounded=0;strokeColor=#000000;" parent="320" edge="1">
                    <mxGeometry width="50" height="50" relative="1" as="geometry">
                        <mxPoint x="20" as="sourcePoint"/>
                        <mxPoint x="-10" as="targetPoint"/>
                        <Array as="points">
                            <mxPoint x="30" y="20"/>
                            <mxPoint y="20"/>
                        </Array>
                    </mxGeometry>
                </mxCell>
                <mxCell id="322" value="" style="endArrow=none;html=1;rounded=0;strokeColor=#000000;" parent="320" edge="1">
                    <mxGeometry width="50" height="50" relative="1" as="geometry">
                        <mxPoint x="-10" as="sourcePoint"/>
                        <mxPoint x="20" as="targetPoint"/>
                        <Array as="points">
                            <mxPoint/>
                        </Array>
                    </mxGeometry>
                </mxCell>
                <mxCell id="329" value="&amp;lt;&amp;lt;2" style="text;html=1;align=center;verticalAlign=middle;resizable=0;points=[];autosize=1;strokeColor=none;fillColor=none;fontSize=10;fontColor=#000000;" parent="320" vertex="1">
                    <mxGeometry x="-3.5" y="2" width="27" height="16" as="geometry"/>
                </mxCell>
                <mxCell id="327" value="" style="endArrow=classicThin;html=1;rounded=0;strokeColor=#000000;endFill=1;" parent="1" edge="1">
                    <mxGeometry width="50" height="50" relative="1" as="geometry">
                        <mxPoint x="741" y="487" as="sourcePoint"/>
                        <mxPoint x="783" y="486.65999999999997" as="targetPoint"/>
                    </mxGeometry>
                </mxCell>
                <mxCell id="328" value="" style="endArrow=none;html=1;rounded=0;strokeColor=#000000;" parent="1" edge="1">
                    <mxGeometry width="50" height="50" relative="1" as="geometry">
                        <mxPoint x="650" y="486.93999999999994" as="sourcePoint"/>
                        <mxPoint x="711" y="487" as="targetPoint"/>
                    </mxGeometry>
                </mxCell>
                <mxCell id="331" value="" style="group" parent="1" vertex="1" connectable="0">
                    <mxGeometry x="517" y="494" width="23" height="37" as="geometry"/>
                </mxCell>
                <mxCell id="168" value="&lt;font color=&quot;#000000&quot; style=&quot;font-size: 10px&quot;&gt;0&lt;/font&gt;" style="text;html=1;align=center;verticalAlign=middle;resizable=0;points=[];autosize=1;strokeColor=none;fillColor=none;" parent="331" vertex="1">
                    <mxGeometry width="16" height="19" as="geometry"/>
                </mxCell>
                <mxCell id="10" value="" style="endArrow=none;html=1;strokeColor=#000000;rounded=0;" parent="331" edge="1">
                    <mxGeometry width="50" height="50" relative="1" as="geometry">
                        <mxPoint x="3" y="39" as="sourcePoint"/>
                        <mxPoint x="3" y="-1" as="targetPoint"/>
                        <Array as="points">
                            <mxPoint x="23" y="29"/>
                            <mxPoint x="23" y="9"/>
                        </Array>
                    </mxGeometry>
                </mxCell>
                <mxCell id="11" value="" style="endArrow=none;html=1;rounded=0;strokeColor=#000000;" parent="331" edge="1">
                    <mxGeometry width="50" height="50" relative="1" as="geometry">
                        <mxPoint x="3" y="39" as="sourcePoint"/>
                        <mxPoint x="3" y="-1" as="targetPoint"/>
                        <Array as="points">
                            <mxPoint x="3" y="19"/>
                        </Array>
                    </mxGeometry>
                </mxCell>
                <mxCell id="169" value="&lt;font style=&quot;font-size: 10px&quot;&gt;1&lt;/font&gt;" style="text;html=1;align=center;verticalAlign=middle;resizable=0;points=[];autosize=1;strokeColor=none;fillColor=none;fontSize=8;fontColor=#000000;" parent="331" vertex="1">
                    <mxGeometry y="22" width="16" height="15" as="geometry"/>
                </mxCell>
                <mxCell id="63" value="" style="shape=waypoint;sketch=0;size=6;pointerEvents=1;points=[];fillColor=none;resizable=0;rotatable=0;perimeter=centerPerimeter;snapToPoint=1;strokeColor=#000000;strokeWidth=0;" parent="1" vertex="1">
                    <mxGeometry x="400" y="503.5" width="40" height="40" as="geometry"/>
                </mxCell>
                <mxCell id="61" value="" style="shape=waypoint;sketch=0;size=6;pointerEvents=1;points=[];fillColor=none;resizable=0;rotatable=0;perimeter=centerPerimeter;snapToPoint=1;strokeColor=#000000;strokeWidth=0;" parent="1" vertex="1">
                    <mxGeometry x="400" y="484" width="40" height="40" as="geometry"/>
                </mxCell>
                <mxCell id="336" value="" style="endArrow=none;html=1;rounded=0;strokeColor=#000000;endFill=1;" parent="1" target="61" edge="1">
                    <mxGeometry width="50" height="50" relative="1" as="geometry">
                        <mxPoint x="420" y="340" as="sourcePoint"/>
                        <mxPoint x="420" y="523.5" as="targetPoint"/>
                        <Array as="points"/>
                    </mxGeometry>
                </mxCell>
            </root>
        </mxGraphModel>
    </diagram>
</mxfile>